<svg xmlns="http://www.w3.org/2000/svg" xmlns:xlink="http://www.w3.org/1999/xlink" width="500" zoomAndPan="magnify" viewBox="0 0 375 374.999991" height="500" preserveAspectRatio="xMidYMid meet" version="1.0"><defs><clipPath id="3c54237a9e"><path d="M 158.625 111.382812 L 346.125 111.382812 L 346.125 298.882812 L 158.625 298.882812 Z M 158.625 111.382812 " clip-rule="nonzero"/></clipPath><clipPath id="6fa95152a9"><path d="M 28.875 205.132812 L 119.914062 205.132812 L 119.914062 296.167969 L 28.875 296.167969 Z M 28.875 205.132812 " clip-rule="nonzero"/></clipPath><clipPath id="e23ef8eedd"><path d="M 87 69 L 230 69 L 230 212 L 87 212 Z M 87 69 " clip-rule="nonzero"/></clipPath><clipPath id="b6f1a7018b"><path d="M 236.847656 86.257812 L 104.265625 218.839844 L 80.398438 194.972656 L 212.980469 62.390625 Z M 236.847656 86.257812 " clip-rule="nonzero"/></clipPath></defs><g clip-path="url(#3c54237a9e)"><path fill="#fca311" d="M 252.375 111.382812 C 253.90625 111.382812 255.441406 111.421875 256.972656 111.496094 C 258.503906 111.570312 260.035156 111.683594 261.5625 111.835938 C 263.089844 111.984375 264.613281 112.171875 266.128906 112.398438 C 267.648438 112.621094 269.160156 112.886719 270.664062 113.183594 C 272.167969 113.484375 273.664062 113.820312 275.152344 114.191406 C 276.640625 114.566406 278.121094 114.976562 279.585938 115.421875 C 281.054688 115.867188 282.511719 116.347656 283.957031 116.863281 C 285.402344 117.378906 286.832031 117.933594 288.25 118.519531 C 289.667969 119.105469 291.070312 119.726562 292.457031 120.382812 C 293.84375 121.039062 295.214844 121.730469 296.566406 122.453125 C 297.917969 123.175781 299.253906 123.933594 300.570312 124.722656 C 301.886719 125.511719 303.183594 126.332031 304.457031 127.183594 C 305.734375 128.035156 306.988281 128.917969 308.21875 129.832031 C 309.453125 130.746094 310.660156 131.691406 311.847656 132.664062 C 313.035156 133.636719 314.195312 134.640625 315.332031 135.667969 C 316.46875 136.699219 317.578125 137.757812 318.664062 138.84375 C 319.75 139.925781 320.808594 141.039062 321.835938 142.175781 C 322.867188 143.3125 323.871094 144.472656 324.84375 145.660156 C 325.816406 146.84375 326.761719 148.054688 327.675781 149.285156 C 328.589844 150.519531 329.472656 151.773438 330.324219 153.046875 C 331.175781 154.324219 331.996094 155.621094 332.785156 156.9375 C 333.574219 158.253906 334.332031 159.585938 335.054688 160.941406 C 335.777344 162.292969 336.464844 163.664062 337.121094 165.050781 C 337.777344 166.4375 338.398438 167.839844 338.988281 169.257812 C 339.574219 170.675781 340.125 172.105469 340.644531 173.550781 C 341.160156 174.996094 341.640625 176.449219 342.085938 177.917969 C 342.53125 179.386719 342.941406 180.867188 343.3125 182.355469 C 343.6875 183.84375 344.023438 185.339844 344.320312 186.84375 C 344.621094 188.347656 344.882812 189.859375 345.109375 191.378906 C 345.332031 192.894531 345.519531 194.417969 345.671875 195.945312 C 345.820312 197.472656 345.933594 199 346.011719 200.53125 C 346.085938 202.066406 346.125 203.597656 346.125 205.132812 C 346.125 206.667969 346.085938 208.199219 346.011719 209.734375 C 345.933594 211.265625 345.820312 212.796875 345.671875 214.324219 C 345.519531 215.847656 345.332031 217.371094 345.109375 218.890625 C 344.882812 220.40625 344.621094 221.917969 344.320312 223.421875 C 344.023438 224.925781 343.6875 226.425781 343.3125 227.914062 C 342.941406 229.402344 342.53125 230.878906 342.085938 232.347656 C 341.640625 233.816406 341.160156 235.273438 340.644531 236.714844 C 340.125 238.160156 339.574219 239.59375 338.988281 241.007812 C 338.398438 242.425781 337.777344 243.828125 337.121094 245.214844 C 336.464844 246.601562 335.777344 247.972656 335.054688 249.328125 C 334.332031 250.679688 333.574219 252.015625 332.785156 253.332031 C 331.996094 254.644531 331.175781 255.941406 330.324219 257.21875 C 329.472656 258.492188 328.589844 259.746094 327.675781 260.980469 C 326.761719 262.210938 325.816406 263.421875 324.84375 264.609375 C 323.871094 265.792969 322.867188 266.953125 321.835938 268.09375 C 320.808594 269.230469 319.75 270.339844 318.664062 271.425781 C 317.578125 272.507812 316.46875 273.566406 315.332031 274.597656 C 314.195312 275.628906 313.035156 276.628906 311.847656 277.601562 C 310.660156 278.578125 309.453125 279.519531 308.21875 280.433594 C 306.988281 281.347656 305.734375 282.230469 304.457031 283.082031 C 303.183594 283.9375 301.886719 284.757812 300.570312 285.546875 C 299.253906 286.335938 297.917969 287.089844 296.566406 287.8125 C 295.214844 288.535156 293.84375 289.226562 292.457031 289.882812 C 291.070312 290.539062 289.667969 291.160156 288.25 291.746094 C 286.832031 292.335938 285.402344 292.886719 283.957031 293.402344 C 282.511719 293.917969 281.054688 294.402344 279.585938 294.847656 C 278.121094 295.292969 276.640625 295.699219 275.152344 296.074219 C 273.664062 296.445312 272.167969 296.78125 270.664062 297.082031 C 269.160156 297.382812 267.648438 297.644531 266.128906 297.867188 C 264.613281 298.09375 263.089844 298.28125 261.5625 298.433594 C 260.035156 298.582031 258.503906 298.695312 256.972656 298.769531 C 255.441406 298.84375 253.90625 298.882812 252.375 298.882812 C 250.839844 298.882812 249.304688 298.84375 247.773438 298.769531 C 246.242188 298.695312 244.710938 298.582031 243.183594 298.433594 C 241.65625 298.28125 240.136719 298.09375 238.617188 297.867188 C 237.101562 297.644531 235.589844 297.382812 234.082031 297.082031 C 232.578125 296.78125 231.082031 296.445312 229.59375 296.074219 C 228.105469 295.699219 226.628906 295.292969 225.160156 294.847656 C 223.691406 294.402344 222.234375 293.917969 220.789062 293.402344 C 219.34375 292.886719 217.914062 292.335938 216.496094 291.746094 C 215.078125 291.160156 213.675781 290.539062 212.289062 289.882812 C 210.902344 289.226562 209.53125 288.535156 208.179688 287.8125 C 206.828125 287.089844 205.492188 286.335938 204.175781 285.546875 C 202.859375 284.757812 201.5625 283.9375 200.289062 283.082031 C 199.011719 282.230469 197.757812 281.347656 196.527344 280.433594 C 195.292969 279.519531 194.085938 278.578125 192.898438 277.601562 C 191.714844 276.628906 190.550781 275.628906 189.414062 274.597656 C 188.277344 273.566406 187.167969 272.507812 186.082031 271.425781 C 184.996094 270.339844 183.941406 269.230469 182.910156 268.09375 C 181.878906 266.953125 180.875 265.792969 179.902344 264.609375 C 178.929688 263.421875 177.988281 262.210938 177.074219 260.980469 C 176.160156 259.746094 175.277344 258.492188 174.421875 257.21875 C 173.570312 255.941406 172.75 254.644531 171.960938 253.332031 C 171.171875 252.015625 170.417969 250.679688 169.691406 249.328125 C 168.96875 247.972656 168.28125 246.601562 167.625 245.214844 C 166.96875 243.828125 166.347656 242.425781 165.757812 241.007812 C 165.171875 239.59375 164.621094 238.160156 164.105469 236.714844 C 163.585938 235.273438 163.105469 233.816406 162.660156 232.347656 C 162.214844 230.878906 161.804688 229.402344 161.433594 227.914062 C 161.058594 226.425781 160.722656 224.925781 160.425781 223.421875 C 160.125 221.917969 159.863281 220.40625 159.636719 218.890625 C 159.414062 217.371094 159.226562 215.847656 159.074219 214.324219 C 158.925781 212.796875 158.8125 211.265625 158.734375 209.734375 C 158.660156 208.199219 158.625 206.667969 158.625 205.132812 C 158.625 203.597656 158.660156 202.066406 158.734375 200.53125 C 158.8125 199 158.925781 197.472656 159.074219 195.945312 C 159.226562 194.417969 159.414062 192.894531 159.636719 191.378906 C 159.863281 189.859375 160.125 188.347656 160.425781 186.84375 C 160.722656 185.339844 161.058594 183.84375 161.433594 182.355469 C 161.804688 180.867188 162.214844 179.386719 162.660156 177.917969 C 163.105469 176.449219 163.585938 174.996094 164.105469 173.550781 C 164.621094 172.105469 165.171875 170.675781 165.757812 169.257812 C 166.347656 167.839844 166.96875 166.4375 167.625 165.050781 C 168.28125 163.664062 168.96875 162.292969 169.691406 160.941406 C 170.417969 159.585938 171.171875 158.253906 171.960938 156.9375 C 172.75 155.621094 173.570312 154.324219 174.421875 153.046875 C 175.277344 151.773438 176.160156 150.519531 177.074219 149.285156 C 177.988281 148.054688 178.929688 146.84375 179.902344 145.660156 C 180.875 144.472656 181.878906 143.3125 182.910156 142.175781 C 183.941406 141.039062 184.996094 139.925781 186.082031 138.84375 C 187.167969 137.757812 188.277344 136.699219 189.414062 135.667969 C 190.550781 134.640625 191.714844 133.636719 192.898438 132.664062 C 194.085938 131.691406 195.292969 130.746094 196.527344 129.832031 C 197.757812 128.917969 199.011719 128.035156 200.289062 127.183594 C 201.5625 126.332031 202.859375 125.511719 204.175781 124.722656 C 205.492188 123.933594 206.828125 123.175781 208.179688 122.453125 C 209.53125 121.730469 210.902344 121.039062 212.289062 120.382812 C 213.675781 119.726562 215.078125 119.105469 216.496094 118.519531 C 217.914062 117.933594 219.34375 117.378906 220.789062 116.863281 C 222.234375 116.347656 223.691406 115.867188 225.160156 115.421875 C 226.628906 114.976562 228.105469 114.566406 229.59375 114.191406 C 231.082031 113.820312 232.578125 113.484375 234.082031 113.183594 C 235.589844 112.886719 237.101562 112.621094 238.617188 112.398438 C 240.136719 112.171875 241.65625 111.984375 243.183594 111.835938 C 244.710938 111.683594 246.242188 111.570312 247.773438 111.496094 C 249.304688 111.421875 250.839844 111.382812 252.375 111.382812 L 252.375 148.882812 C 250.53125 148.882812 248.691406 148.972656 246.859375 149.152344 C 245.027344 149.335938 243.207031 149.605469 241.398438 149.964844 C 239.59375 150.324219 237.808594 150.769531 236.042969 151.304688 C 234.28125 151.839844 232.550781 152.460938 230.847656 153.164062 C 229.144531 153.871094 227.480469 154.65625 225.855469 155.523438 C 224.234375 156.394531 222.652344 157.339844 221.121094 158.363281 C 219.589844 159.386719 218.113281 160.484375 216.6875 161.652344 C 215.265625 162.820312 213.902344 164.054688 212.597656 165.359375 C 211.296875 166.660156 210.058594 168.023438 208.890625 169.449219 C 207.722656 170.871094 206.625 172.351562 205.601562 173.882812 C 204.578125 175.414062 203.632812 176.992188 202.765625 178.617188 C 201.898438 180.242188 201.109375 181.90625 200.40625 183.605469 C 199.699219 185.308594 199.082031 187.042969 198.546875 188.804688 C 198.011719 190.566406 197.5625 192.351562 197.203125 194.160156 C 196.84375 195.964844 196.574219 197.785156 196.394531 199.621094 C 196.214844 201.453125 196.125 203.289062 196.125 205.132812 C 196.125 206.976562 196.214844 208.8125 196.394531 210.648438 C 196.574219 212.480469 196.84375 214.300781 197.203125 216.105469 C 197.5625 217.914062 198.011719 219.699219 198.546875 221.460938 C 199.082031 223.226562 199.699219 224.957031 200.40625 226.660156 C 201.109375 228.359375 201.898438 230.023438 202.765625 231.648438 C 203.632812 233.273438 204.578125 234.851562 205.601562 236.382812 C 206.625 237.914062 207.722656 239.394531 208.890625 240.816406 C 210.058594 242.242188 211.296875 243.605469 212.597656 244.90625 C 213.902344 246.210938 215.265625 247.445312 216.6875 248.613281 C 218.113281 249.785156 219.589844 250.878906 221.121094 251.902344 C 222.652344 252.925781 224.234375 253.871094 225.855469 254.742188 C 227.480469 255.609375 229.144531 256.394531 230.847656 257.101562 C 232.550781 257.804688 234.28125 258.425781 236.042969 258.960938 C 237.808594 259.496094 239.59375 259.941406 241.398438 260.300781 C 243.207031 260.660156 245.027344 260.933594 246.859375 261.113281 C 248.691406 261.292969 250.53125 261.382812 252.375 261.382812 C 254.214844 261.382812 256.054688 261.292969 257.886719 261.113281 C 259.71875 260.933594 261.539062 260.660156 263.347656 260.300781 C 265.152344 259.941406 266.9375 259.496094 268.703125 258.960938 C 270.464844 258.425781 272.195312 257.804688 273.898438 257.101562 C 275.601562 256.394531 277.265625 255.609375 278.890625 254.742188 C 280.515625 253.871094 282.09375 252.925781 283.625 251.902344 C 285.15625 250.878906 286.632812 249.785156 288.058594 248.613281 C 289.480469 247.445312 290.84375 246.210938 292.148438 244.90625 C 293.449219 243.605469 294.6875 242.242188 295.855469 240.816406 C 297.023438 239.394531 298.121094 237.914062 299.144531 236.382812 C 300.167969 234.851562 301.113281 233.273438 301.980469 231.648438 C 302.851562 230.023438 303.636719 228.359375 304.339844 226.660156 C 305.046875 224.957031 305.667969 223.226562 306.203125 221.460938 C 306.734375 219.699219 307.183594 217.914062 307.542969 216.105469 C 307.902344 214.300781 308.171875 212.480469 308.351562 210.648438 C 308.53125 208.8125 308.625 206.976562 308.625 205.132812 C 308.625 203.289062 308.53125 201.453125 308.351562 199.621094 C 308.171875 197.785156 307.902344 195.964844 307.542969 194.160156 C 307.183594 192.351562 306.734375 190.566406 306.203125 188.804688 C 305.667969 187.042969 305.046875 185.308594 304.339844 183.605469 C 303.636719 181.90625 302.851562 180.242188 301.980469 178.617188 C 301.113281 176.992188 300.167969 175.414062 299.144531 173.882812 C 298.121094 172.351562 297.023438 170.871094 295.855469 169.449219 C 294.6875 168.023438 293.449219 166.660156 292.148438 165.359375 C 290.84375 164.054688 289.480469 162.820312 288.058594 161.652344 C 286.632812 160.484375 285.15625 159.386719 283.625 158.363281 C 282.09375 157.339844 280.515625 156.394531 278.890625 155.523438 C 277.265625 154.65625 275.601562 153.871094 273.898438 153.164062 C 272.195312 152.460938 270.464844 151.839844 268.703125 151.304688 C 266.9375 150.769531 265.152344 150.324219 263.347656 149.964844 C 261.539062 149.605469 259.71875 149.335938 257.886719 149.152344 C 256.054688 148.972656 254.214844 148.882812 252.375 148.882812 Z M 252.375 111.382812 " fill-opacity="1" fill-rule="nonzero"/><path fill="#fca311" d="M 252.375 111.382812 C 253.90625 111.382812 255.441406 111.421875 256.972656 111.496094 C 258.503906 111.570312 260.035156 111.683594 261.5625 111.835938 C 263.089844 111.984375 264.613281 112.171875 266.128906 112.398438 C 267.648438 112.621094 269.160156 112.886719 270.664062 113.183594 C 272.167969 113.484375 273.664062 113.820312 275.152344 114.191406 C 276.640625 114.566406 278.121094 114.976562 279.585938 115.421875 C 281.054688 115.867188 282.511719 116.347656 283.957031 116.863281 C 285.402344 117.378906 286.832031 117.933594 288.25 118.519531 C 289.667969 119.105469 291.070312 119.726562 292.457031 120.382812 C 293.84375 121.039062 295.214844 121.730469 296.566406 122.453125 C 297.917969 123.175781 299.253906 123.933594 300.570312 124.722656 C 301.886719 125.511719 303.183594 126.332031 304.457031 127.183594 C 305.734375 128.035156 306.988281 128.917969 308.21875 129.832031 C 309.453125 130.746094 310.660156 131.691406 311.847656 132.664062 C 313.035156 133.636719 314.195312 134.640625 315.332031 135.667969 C 316.46875 136.699219 317.578125 137.757812 318.664062 138.84375 C 319.75 139.925781 320.808594 141.039062 321.835938 142.175781 C 322.867188 143.3125 323.871094 144.472656 324.84375 145.660156 C 325.816406 146.84375 326.761719 148.054688 327.675781 149.285156 C 328.589844 150.519531 329.472656 151.773438 330.324219 153.046875 C 331.175781 154.324219 331.996094 155.621094 332.785156 156.9375 C 333.574219 158.253906 334.332031 159.585938 335.054688 160.941406 C 335.777344 162.292969 336.464844 163.664062 337.121094 165.050781 C 337.777344 166.4375 338.398438 167.839844 338.988281 169.257812 C 339.574219 170.675781 340.125 172.105469 340.644531 173.550781 C 341.160156 174.996094 341.640625 176.449219 342.085938 177.917969 C 342.53125 179.386719 342.941406 180.867188 343.3125 182.355469 C 343.6875 183.84375 344.023438 185.339844 344.320312 186.84375 C 344.621094 188.347656 344.882812 189.859375 345.109375 191.378906 C 345.332031 192.894531 345.519531 194.417969 345.671875 195.945312 C 345.820312 197.472656 345.933594 199 346.011719 200.53125 C 346.085938 202.066406 346.125 203.597656 346.125 205.132812 C 346.125 206.667969 346.085938 208.199219 346.011719 209.734375 C 345.933594 211.265625 345.820312 212.796875 345.671875 214.324219 C 345.519531 215.847656 345.332031 217.371094 345.109375 218.890625 C 344.882812 220.40625 344.621094 221.917969 344.320312 223.421875 C 344.023438 224.925781 343.6875 226.425781 343.3125 227.914062 C 342.941406 229.402344 342.53125 230.878906 342.085938 232.347656 C 341.640625 233.816406 341.160156 235.273438 340.644531 236.714844 C 340.125 238.160156 339.574219 239.59375 338.988281 241.007812 C 338.398438 242.425781 337.777344 243.828125 337.121094 245.214844 C 336.464844 246.601562 335.777344 247.972656 335.054688 249.328125 C 334.332031 250.679688 333.574219 252.015625 332.785156 253.332031 C 331.996094 254.644531 331.175781 255.941406 330.324219 257.21875 C 329.472656 258.492188 328.589844 259.746094 327.675781 260.980469 C 326.761719 262.210938 325.816406 263.421875 324.84375 264.609375 C 323.871094 265.792969 322.867188 266.953125 321.835938 268.09375 C 320.808594 269.230469 319.75 270.339844 318.664062 271.425781 C 317.578125 272.507812 316.46875 273.566406 315.332031 274.597656 C 314.195312 275.628906 313.035156 276.628906 311.847656 277.601562 C 310.660156 278.578125 309.453125 279.519531 308.21875 280.433594 C 306.988281 281.347656 305.734375 282.230469 304.457031 283.082031 C 303.183594 283.9375 301.886719 284.757812 300.570312 285.546875 C 299.253906 286.335938 297.917969 287.089844 296.566406 287.8125 C 295.214844 288.535156 293.84375 289.226562 292.457031 289.882812 C 291.070312 290.539062 289.667969 291.160156 288.25 291.746094 C 286.832031 292.335938 285.402344 292.886719 283.957031 293.402344 C 282.511719 293.917969 281.054688 294.402344 279.585938 294.847656 C 278.121094 295.292969 276.640625 295.699219 275.152344 296.074219 C 273.664062 296.445312 272.167969 296.78125 270.664062 297.082031 C 269.160156 297.382812 267.648438 297.644531 266.128906 297.867188 C 264.613281 298.09375 263.089844 298.28125 261.5625 298.433594 C 260.035156 298.582031 258.503906 298.695312 256.972656 298.769531 C 255.441406 298.84375 253.90625 298.882812 252.375 298.882812 C 250.839844 298.882812 249.304688 298.84375 247.773438 298.769531 C 246.242188 298.695312 244.710938 298.582031 243.183594 298.433594 C 241.65625 298.28125 240.136719 298.09375 238.617188 297.867188 C 237.101562 297.644531 235.589844 297.382812 234.082031 297.082031 C 232.578125 296.78125 231.082031 296.445312 229.59375 296.074219 C 228.105469 295.699219 226.628906 295.292969 225.160156 294.847656 C 223.691406 294.402344 222.234375 293.917969 220.789062 293.402344 C 219.34375 292.886719 217.914062 292.335938 216.496094 291.746094 C 215.078125 291.160156 213.675781 290.539062 212.289062 289.882812 C 210.902344 289.226562 209.53125 288.535156 208.179688 287.8125 C 206.828125 287.089844 205.492188 286.335938 204.175781 285.546875 C 202.859375 284.757812 201.5625 283.9375 200.289062 283.082031 C 199.011719 282.230469 197.757812 281.347656 196.527344 280.433594 C 195.292969 279.519531 194.085938 278.578125 192.898438 277.601562 C 191.714844 276.628906 190.550781 275.628906 189.414062 274.597656 C 188.277344 273.566406 187.167969 272.507812 186.082031 271.425781 C 184.996094 270.339844 183.941406 269.230469 182.910156 268.09375 C 181.878906 266.953125 180.875 265.792969 179.902344 264.609375 C 178.929688 263.421875 177.988281 262.210938 177.074219 260.980469 C 176.160156 259.746094 175.277344 258.492188 174.421875 257.21875 C 173.570312 255.941406 172.75 254.644531 171.960938 253.332031 C 171.171875 252.015625 170.417969 250.679688 169.691406 249.328125 C 168.96875 247.972656 168.28125 246.601562 167.625 245.214844 C 166.96875 243.828125 166.347656 242.425781 165.757812 241.007812 C 165.171875 239.59375 164.621094 238.160156 164.105469 236.714844 C 163.585938 235.273438 163.105469 233.816406 162.660156 232.347656 C 162.214844 230.878906 161.804688 229.402344 161.433594 227.914062 C 161.058594 226.425781 160.722656 224.925781 160.425781 223.421875 C 160.125 221.917969 159.863281 220.40625 159.636719 218.890625 C 159.414062 217.371094 159.226562 215.847656 159.074219 214.324219 C 158.925781 212.796875 158.8125 211.265625 158.734375 209.734375 C 158.660156 208.199219 158.625 206.667969 158.625 205.132812 C 158.625 203.597656 158.660156 202.066406 158.734375 200.53125 C 158.8125 199 158.925781 197.472656 159.074219 195.945312 C 159.226562 194.417969 159.414062 192.894531 159.636719 191.378906 C 159.863281 189.859375 160.125 188.347656 160.425781 186.84375 C 160.722656 185.339844 161.058594 183.84375 161.433594 182.355469 C 161.804688 180.867188 162.214844 179.386719 162.660156 177.917969 C 163.105469 176.449219 163.585938 174.996094 164.105469 173.550781 C 164.621094 172.105469 165.171875 170.675781 165.757812 169.257812 C 166.347656 167.839844 166.96875 166.4375 167.625 165.050781 C 168.28125 163.664062 168.96875 162.292969 169.691406 160.941406 C 170.417969 159.585938 171.171875 158.253906 171.960938 156.9375 C 172.75 155.621094 173.570312 154.324219 174.421875 153.046875 C 175.277344 151.773438 176.160156 150.519531 177.074219 149.285156 C 177.988281 148.054688 178.929688 146.84375 179.902344 145.660156 C 180.875 144.472656 181.878906 143.3125 182.910156 142.175781 C 183.941406 141.039062 184.996094 139.925781 186.082031 138.84375 C 187.167969 137.757812 188.277344 136.699219 189.414062 135.667969 C 190.550781 134.640625 191.714844 133.636719 192.898438 132.664062 C 194.085938 131.691406 195.292969 130.746094 196.527344 129.832031 C 197.757812 128.917969 199.011719 128.035156 200.289062 127.183594 C 201.5625 126.332031 202.859375 125.511719 204.175781 124.722656 C 205.492188 123.933594 206.828125 123.175781 208.179688 122.453125 C 209.53125 121.730469 210.902344 121.039062 212.289062 120.382812 C 213.675781 119.726562 215.078125 119.105469 216.496094 118.519531 C 217.914062 117.933594 219.34375 117.378906 220.789062 116.863281 C 222.234375 116.347656 223.691406 115.867188 225.160156 115.421875 C 226.628906 114.976562 228.105469 114.566406 229.59375 114.191406 C 231.082031 113.820312 232.578125 113.484375 234.082031 113.183594 C 235.589844 112.886719 237.101562 112.621094 238.617188 112.398438 C 240.136719 112.171875 241.65625 111.984375 243.183594 111.835938 C 244.710938 111.683594 246.242188 111.570312 247.773438 111.496094 C 249.304688 111.421875 250.839844 111.382812 252.375 111.382812 L 252.375 148.882812 C 250.53125 148.882812 248.691406 148.972656 246.859375 149.152344 C 245.027344 149.335938 243.207031 149.605469 241.398438 149.964844 C 239.59375 150.324219 237.808594 150.769531 236.042969 151.304688 C 234.28125 151.839844 232.550781 152.460938 230.847656 153.164062 C 229.144531 153.871094 227.480469 154.65625 225.855469 155.523438 C 224.234375 156.394531 222.652344 157.339844 221.121094 158.363281 C 219.589844 159.386719 218.113281 160.484375 216.6875 161.652344 C 215.265625 162.820312 213.902344 164.054688 212.597656 165.359375 C 211.296875 166.660156 210.058594 168.023438 208.890625 169.449219 C 207.722656 170.871094 206.625 172.351562 205.601562 173.882812 C 204.578125 175.414062 203.632812 176.992188 202.765625 178.617188 C 201.898438 180.242188 201.109375 181.90625 200.40625 183.605469 C 199.699219 185.308594 199.082031 187.042969 198.546875 188.804688 C 198.011719 190.566406 197.5625 192.351562 197.203125 194.160156 C 196.84375 195.964844 196.574219 197.785156 196.394531 199.621094 C 196.214844 201.453125 196.125 203.289062 196.125 205.132812 C 196.125 206.976562 196.214844 208.8125 196.394531 210.648438 C 196.574219 212.480469 196.84375 214.300781 197.203125 216.105469 C 197.5625 217.914062 198.011719 219.699219 198.546875 221.460938 C 199.082031 223.226562 199.699219 224.957031 200.40625 226.660156 C 201.109375 228.359375 201.898438 230.023438 202.765625 231.648438 C 203.632812 233.273438 204.578125 234.851562 205.601562 236.382812 C 206.625 237.914062 207.722656 239.394531 208.890625 240.816406 C 210.058594 242.242188 211.296875 243.605469 212.597656 244.90625 C 213.902344 246.210938 215.265625 247.445312 216.6875 248.613281 C 218.113281 249.785156 219.589844 250.878906 221.121094 251.902344 C 222.652344 252.925781 224.234375 253.871094 225.855469 254.742188 C 227.480469 255.609375 229.144531 256.394531 230.847656 257.101562 C 232.550781 257.804688 234.28125 258.425781 236.042969 258.960938 C 237.808594 259.496094 239.59375 259.941406 241.398438 260.300781 C 243.207031 260.660156 245.027344 260.933594 246.859375 261.113281 C 248.691406 261.292969 250.53125 261.382812 252.375 261.382812 C 254.214844 261.382812 256.054688 261.292969 257.886719 261.113281 C 259.71875 260.933594 261.539062 260.660156 263.347656 260.300781 C 265.152344 259.941406 266.9375 259.496094 268.703125 258.960938 C 270.464844 258.425781 272.195312 257.804688 273.898438 257.101562 C 275.601562 256.394531 277.265625 255.609375 278.890625 254.742188 C 280.515625 253.871094 282.09375 252.925781 283.625 251.902344 C 285.15625 250.878906 286.632812 249.785156 288.058594 248.613281 C 289.480469 247.445312 290.84375 246.210938 292.148438 244.90625 C 293.449219 243.605469 294.6875 242.242188 295.855469 240.816406 C 297.023438 239.394531 298.121094 237.914062 299.144531 236.382812 C 300.167969 234.851562 301.113281 233.273438 301.980469 231.648438 C 302.851562 230.023438 303.636719 228.359375 304.339844 226.660156 C 305.046875 224.957031 305.667969 223.226562 306.203125 221.460938 C 306.734375 219.699219 307.183594 217.914062 307.542969 216.105469 C 307.902344 214.300781 308.171875 212.480469 308.351562 210.648438 C 308.53125 208.8125 308.625 206.976562 308.625 205.132812 C 308.625 203.289062 308.53125 201.453125 308.351562 199.621094 C 308.171875 197.785156 307.902344 195.964844 307.542969 194.160156 C 307.183594 192.351562 306.734375 190.566406 306.203125 188.804688 C 305.667969 187.042969 305.046875 185.308594 304.339844 183.605469 C 303.636719 181.90625 302.851562 180.242188 301.980469 178.617188 C 301.113281 176.992188 300.167969 175.414062 299.144531 173.882812 C 298.121094 172.351562 297.023438 170.871094 295.855469 169.449219 C 294.6875 168.023438 293.449219 166.660156 292.148438 165.359375 C 290.84375 164.054688 289.480469 162.820312 288.058594 161.652344 C 286.632812 160.484375 285.15625 159.386719 283.625 158.363281 C 282.09375 157.339844 280.515625 156.394531 278.890625 155.523438 C 277.265625 154.65625 275.601562 153.871094 273.898438 153.164062 C 272.195312 152.460938 270.464844 151.839844 268.703125 151.304688 C 266.9375 150.769531 265.152344 150.324219 263.347656 149.964844 C 261.539062 149.605469 259.71875 149.335938 257.886719 149.152344 C 256.054688 148.972656 254.214844 148.882812 252.375 148.882812 Z M 252.375 111.382812 " fill-opacity="1" fill-rule="nonzero"/></g><g clip-path="url(#6fa95152a9)"><path fill="#fca311" d="M 74.394531 205.132812 C 75.886719 205.132812 77.371094 205.207031 78.855469 205.351562 C 80.339844 205.5 81.8125 205.71875 83.273438 206.007812 C 84.738281 206.296875 86.179688 206.660156 87.609375 207.09375 C 89.035156 207.527344 90.4375 208.027344 91.8125 208.597656 C 93.191406 209.167969 94.535156 209.804688 95.851562 210.507812 C 97.167969 211.210938 98.441406 211.976562 99.683594 212.804688 C 100.921875 213.632812 102.117188 214.519531 103.269531 215.464844 C 104.421875 216.410156 105.527344 217.410156 106.582031 218.464844 C 107.632812 219.519531 108.632812 220.621094 109.582031 221.773438 C 110.527344 222.925781 111.414062 224.125 112.242188 225.363281 C 113.070312 226.601562 113.835938 227.878906 114.539062 229.195312 C 115.242188 230.507812 115.878906 231.855469 116.449219 233.230469 C 117.019531 234.609375 117.519531 236.011719 117.953125 237.4375 C 118.386719 238.863281 118.746094 240.308594 119.039062 241.769531 C 119.328125 243.234375 119.546875 244.707031 119.691406 246.191406 C 119.839844 247.671875 119.914062 249.160156 119.914062 250.652344 C 119.914062 252.140625 119.839844 253.628906 119.691406 255.113281 C 119.546875 256.597656 119.328125 258.070312 119.039062 259.53125 C 118.746094 260.992188 118.386719 262.4375 117.953125 263.863281 C 117.519531 265.289062 117.019531 266.691406 116.449219 268.070312 C 115.878906 269.445312 115.242188 270.792969 114.539062 272.109375 C 113.835938 273.421875 113.070312 274.699219 112.242188 275.9375 C 111.414062 277.179688 110.527344 278.375 109.582031 279.527344 C 108.632812 280.679688 107.632812 281.78125 106.582031 282.835938 C 105.527344 283.890625 104.421875 284.890625 103.269531 285.835938 C 102.117188 286.78125 100.921875 287.667969 99.683594 288.496094 C 98.441406 289.324219 97.167969 290.089844 95.851562 290.792969 C 94.535156 291.496094 93.191406 292.132812 91.8125 292.703125 C 90.4375 293.273438 89.035156 293.777344 87.609375 294.207031 C 86.179688 294.640625 84.738281 295.003906 83.273438 295.292969 C 81.8125 295.585938 80.339844 295.804688 78.855469 295.949219 C 77.371094 296.097656 75.886719 296.167969 74.394531 296.167969 C 72.902344 296.167969 71.417969 296.097656 69.933594 295.949219 C 68.449219 295.804688 66.976562 295.585938 65.515625 295.292969 C 64.050781 295.003906 62.609375 294.640625 61.179688 294.207031 C 59.753906 293.777344 58.351562 293.273438 56.976562 292.703125 C 55.597656 292.132812 54.253906 291.496094 52.9375 290.792969 C 51.621094 290.089844 50.34375 289.324219 49.105469 288.496094 C 47.867188 287.667969 46.671875 286.78125 45.519531 285.835938 C 44.367188 284.890625 43.261719 283.890625 42.207031 282.835938 C 41.15625 281.78125 40.15625 280.679688 39.207031 279.527344 C 38.261719 278.375 37.375 277.179688 36.546875 275.9375 C 35.71875 274.699219 34.953125 273.421875 34.25 272.109375 C 33.546875 270.792969 32.910156 269.445312 32.339844 268.070312 C 31.769531 266.691406 31.269531 265.289062 30.835938 263.863281 C 30.402344 262.4375 30.042969 260.992188 29.75 259.53125 C 29.460938 258.070312 29.242188 256.597656 29.097656 255.113281 C 28.949219 253.628906 28.875 252.140625 28.875 250.652344 C 28.875 249.160156 28.949219 247.671875 29.097656 246.191406 C 29.242188 244.707031 29.460938 243.234375 29.75 241.769531 C 30.042969 240.308594 30.402344 238.863281 30.835938 237.4375 C 31.269531 236.011719 31.769531 234.609375 32.339844 233.230469 C 32.910156 231.855469 33.546875 230.507812 34.25 229.195312 C 34.953125 227.878906 35.71875 226.601562 36.546875 225.363281 C 37.375 224.125 38.261719 222.925781 39.207031 221.773438 C 40.15625 220.621094 41.15625 219.519531 42.207031 218.464844 C 43.261719 217.410156 44.367188 216.410156 45.519531 215.464844 C 46.671875 214.519531 47.867188 213.632812 49.105469 212.804688 C 50.34375 211.976562 51.621094 211.210938 52.9375 210.507812 C 54.253906 209.804688 55.597656 209.167969 56.976562 208.597656 C 58.351562 208.027344 59.753906 207.527344 61.179688 207.09375 C 62.609375 206.660156 64.050781 206.296875 65.515625 206.007812 C 66.976562 205.71875 68.449219 205.5 69.933594 205.351562 C 71.417969 205.207031 72.902344 205.132812 74.394531 205.132812 L 74.394531 223.339844 C 73.5 223.339844 72.609375 223.382812 71.71875 223.472656 C 70.828125 223.558594 69.945312 223.691406 69.066406 223.863281 C 68.1875 224.039062 67.324219 224.257812 66.464844 224.515625 C 65.609375 224.777344 64.769531 225.078125 63.941406 225.417969 C 63.117188 225.761719 62.308594 226.144531 61.519531 226.566406 C 60.730469 226.988281 59.964844 227.445312 59.222656 227.941406 C 58.476562 228.441406 57.761719 228.972656 57.070312 229.539062 C 56.378906 230.105469 55.714844 230.707031 55.082031 231.339844 C 54.449219 231.972656 53.851562 232.632812 53.28125 233.324219 C 52.714844 234.015625 52.183594 234.734375 51.6875 235.476562 C 51.191406 236.222656 50.730469 236.988281 50.308594 237.777344 C 49.886719 238.566406 49.503906 239.375 49.164062 240.199219 C 48.820312 241.027344 48.519531 241.867188 48.261719 242.722656 C 48 243.578125 47.78125 244.445312 47.609375 245.324219 C 47.433594 246.199219 47.304688 247.082031 47.214844 247.972656 C 47.128906 248.863281 47.082031 249.757812 47.082031 250.652344 C 47.082031 251.546875 47.128906 252.4375 47.214844 253.328125 C 47.304688 254.21875 47.433594 255.101562 47.609375 255.980469 C 47.78125 256.855469 48 257.722656 48.261719 258.578125 C 48.519531 259.433594 48.820312 260.277344 49.164062 261.101562 C 49.503906 261.929688 49.886719 262.738281 50.308594 263.523438 C 50.730469 264.3125 51.191406 265.082031 51.6875 265.824219 C 52.183594 266.566406 52.714844 267.285156 53.28125 267.976562 C 53.851562 268.667969 54.449219 269.332031 55.082031 269.960938 C 55.714844 270.59375 56.378906 271.195312 57.070312 271.761719 C 57.761719 272.328125 58.476562 272.863281 59.222656 273.359375 C 59.964844 273.855469 60.730469 274.316406 61.519531 274.738281 C 62.308594 275.160156 63.117188 275.539062 63.941406 275.882812 C 64.769531 276.226562 65.609375 276.527344 66.464844 276.785156 C 67.324219 277.046875 68.1875 277.261719 69.066406 277.4375 C 69.945312 277.613281 70.828125 277.742188 71.71875 277.832031 C 72.609375 277.917969 73.5 277.960938 74.394531 277.960938 C 75.289062 277.960938 76.179688 277.917969 77.070312 277.832031 C 77.960938 277.742188 78.84375 277.613281 79.722656 277.4375 C 80.601562 277.261719 81.464844 277.046875 82.324219 276.785156 C 83.179688 276.527344 84.019531 276.226562 84.847656 275.882812 C 85.671875 275.539062 86.480469 275.160156 87.269531 274.738281 C 88.058594 274.316406 88.824219 273.855469 89.566406 273.359375 C 90.3125 272.863281 91.027344 272.328125 91.71875 271.761719 C 92.410156 271.195312 93.074219 270.59375 93.707031 269.960938 C 94.339844 269.332031 94.9375 268.667969 95.507812 267.976562 C 96.074219 267.285156 96.605469 266.566406 97.101562 265.824219 C 97.597656 265.082031 98.058594 264.3125 98.480469 263.523438 C 98.902344 262.738281 99.285156 261.929688 99.625 261.101562 C 99.96875 260.277344 100.269531 259.433594 100.527344 258.578125 C 100.789062 257.722656 101.007812 256.855469 101.179688 255.980469 C 101.355469 255.101562 101.484375 254.21875 101.574219 253.328125 C 101.660156 252.4375 101.707031 251.546875 101.707031 250.652344 C 101.707031 249.757812 101.660156 248.863281 101.574219 247.972656 C 101.484375 247.082031 101.355469 246.199219 101.179688 245.324219 C 101.007812 244.445312 100.789062 243.578125 100.527344 242.722656 C 100.269531 241.867188 99.96875 241.027344 99.625 240.199219 C 99.285156 239.375 98.902344 238.566406 98.480469 237.777344 C 98.058594 236.988281 97.597656 236.222656 97.101562 235.476562 C 96.605469 234.734375 96.074219 234.015625 95.507812 233.324219 C 94.9375 232.632812 94.339844 231.972656 93.707031 231.339844 C 93.074219 230.707031 92.410156 230.105469 91.71875 229.539062 C 91.027344 228.972656 90.3125 228.441406 89.566406 227.941406 C 88.824219 227.445312 88.058594 226.988281 87.269531 226.566406 C 86.480469 226.144531 85.671875 225.761719 84.847656 225.417969 C 84.019531 225.078125 83.179688 224.777344 82.324219 224.515625 C 81.464844 224.257812 80.601562 224.039062 79.722656 223.863281 C 78.84375 223.691406 77.960938 223.558594 77.070312 223.472656 C 76.179688 223.382812 75.289062 223.339844 74.394531 223.339844 Z M 74.394531 205.132812 " fill-opacity="1" fill-rule="nonzero"/><path fill="#fca311" d="M 74.394531 205.132812 C 75.886719 205.132812 77.371094 205.207031 78.855469 205.351562 C 80.339844 205.5 81.8125 205.71875 83.273438 206.007812 C 84.738281 206.296875 86.179688 206.660156 87.609375 207.09375 C 89.035156 207.527344 90.4375 208.027344 91.8125 208.597656 C 93.191406 209.167969 94.535156 209.804688 95.851562 210.507812 C 97.167969 211.210938 98.441406 211.976562 99.683594 212.804688 C 100.921875 213.632812 102.117188 214.519531 103.269531 215.464844 C 104.421875 216.410156 105.527344 217.410156 106.582031 218.464844 C 107.632812 219.519531 108.632812 220.621094 109.582031 221.773438 C 110.527344 222.925781 111.414062 224.125 112.242188 225.363281 C 113.070312 226.601562 113.835938 227.878906 114.539062 229.195312 C 115.242188 230.507812 115.878906 231.855469 116.449219 233.230469 C 117.019531 234.609375 117.519531 236.011719 117.953125 237.4375 C 118.386719 238.863281 118.746094 240.308594 119.039062 241.769531 C 119.328125 243.234375 119.546875 244.707031 119.691406 246.191406 C 119.839844 247.671875 119.914062 249.160156 119.914062 250.652344 C 119.914062 252.140625 119.839844 253.628906 119.691406 255.113281 C 119.546875 256.597656 119.328125 258.070312 119.039062 259.53125 C 118.746094 260.992188 118.386719 262.4375 117.953125 263.863281 C 117.519531 265.289062 117.019531 266.691406 116.449219 268.070312 C 115.878906 269.445312 115.242188 270.792969 114.539062 272.109375 C 113.835938 273.421875 113.070312 274.699219 112.242188 275.9375 C 111.414062 277.179688 110.527344 278.375 109.582031 279.527344 C 108.632812 280.679688 107.632812 281.78125 106.582031 282.835938 C 105.527344 283.890625 104.421875 284.890625 103.269531 285.835938 C 102.117188 286.78125 100.921875 287.667969 99.683594 288.496094 C 98.441406 289.324219 97.167969 290.089844 95.851562 290.792969 C 94.535156 291.496094 93.191406 292.132812 91.8125 292.703125 C 90.4375 293.273438 89.035156 293.777344 87.609375 294.207031 C 86.179688 294.640625 84.738281 295.003906 83.273438 295.292969 C 81.8125 295.585938 80.339844 295.804688 78.855469 295.949219 C 77.371094 296.097656 75.886719 296.167969 74.394531 296.167969 C 72.902344 296.167969 71.417969 296.097656 69.933594 295.949219 C 68.449219 295.804688 66.976562 295.585938 65.515625 295.292969 C 64.050781 295.003906 62.609375 294.640625 61.179688 294.207031 C 59.753906 293.777344 58.351562 293.273438 56.976562 292.703125 C 55.597656 292.132812 54.253906 291.496094 52.9375 290.792969 C 51.621094 290.089844 50.34375 289.324219 49.105469 288.496094 C 47.867188 287.667969 46.671875 286.78125 45.519531 285.835938 C 44.367188 284.890625 43.261719 283.890625 42.207031 282.835938 C 41.15625 281.78125 40.15625 280.679688 39.207031 279.527344 C 38.261719 278.375 37.375 277.179688 36.546875 275.9375 C 35.71875 274.699219 34.953125 273.421875 34.25 272.109375 C 33.546875 270.792969 32.910156 269.445312 32.339844 268.070312 C 31.769531 266.691406 31.269531 265.289062 30.835938 263.863281 C 30.402344 262.4375 30.042969 260.992188 29.75 259.53125 C 29.460938 258.070312 29.242188 256.597656 29.097656 255.113281 C 28.949219 253.628906 28.875 252.140625 28.875 250.652344 C 28.875 249.160156 28.949219 247.671875 29.097656 246.191406 C 29.242188 244.707031 29.460938 243.234375 29.75 241.769531 C 30.042969 240.308594 30.402344 238.863281 30.835938 237.4375 C 31.269531 236.011719 31.769531 234.609375 32.339844 233.230469 C 32.910156 231.855469 33.546875 230.507812 34.25 229.195312 C 34.953125 227.878906 35.71875 226.601562 36.546875 225.363281 C 37.375 224.125 38.261719 222.925781 39.207031 221.773438 C 40.15625 220.621094 41.15625 219.519531 42.207031 218.464844 C 43.261719 217.410156 44.367188 216.410156 45.519531 215.464844 C 46.671875 214.519531 47.867188 213.632812 49.105469 212.804688 C 50.34375 211.976562 51.621094 211.210938 52.9375 210.507812 C 54.253906 209.804688 55.597656 209.167969 56.976562 208.597656 C 58.351562 208.027344 59.753906 207.527344 61.179688 207.09375 C 62.609375 206.660156 64.050781 206.296875 65.515625 206.007812 C 66.976562 205.71875 68.449219 205.5 69.933594 205.351562 C 71.417969 205.207031 72.902344 205.132812 74.394531 205.132812 L 74.394531 223.339844 C 73.5 223.339844 72.609375 223.382812 71.71875 223.472656 C 70.828125 223.558594 69.945312 223.691406 69.066406 223.863281 C 68.1875 224.039062 67.324219 224.257812 66.464844 224.515625 C 65.609375 224.777344 64.769531 225.078125 63.941406 225.417969 C 63.117188 225.761719 62.308594 226.144531 61.519531 226.566406 C 60.730469 226.988281 59.964844 227.445312 59.222656 227.941406 C 58.476562 228.441406 57.761719 228.972656 57.070312 229.539062 C 56.378906 230.105469 55.714844 230.707031 55.082031 231.339844 C 54.449219 231.972656 53.851562 232.632812 53.28125 233.324219 C 52.714844 234.015625 52.183594 234.734375 51.6875 235.476562 C 51.191406 236.222656 50.730469 236.988281 50.308594 237.777344 C 49.886719 238.566406 49.503906 239.375 49.164062 240.199219 C 48.820312 241.027344 48.519531 241.867188 48.261719 242.722656 C 48 243.578125 47.78125 244.445312 47.609375 245.324219 C 47.433594 246.199219 47.304688 247.082031 47.214844 247.972656 C 47.128906 248.863281 47.082031 249.757812 47.082031 250.652344 C 47.082031 251.546875 47.128906 252.4375 47.214844 253.328125 C 47.304688 254.21875 47.433594 255.101562 47.609375 255.980469 C 47.78125 256.855469 48 257.722656 48.261719 258.578125 C 48.519531 259.433594 48.820312 260.277344 49.164062 261.101562 C 49.503906 261.929688 49.886719 262.738281 50.308594 263.523438 C 50.730469 264.3125 51.191406 265.082031 51.6875 265.824219 C 52.183594 266.566406 52.714844 267.285156 53.28125 267.976562 C 53.851562 268.667969 54.449219 269.332031 55.082031 269.960938 C 55.714844 270.59375 56.378906 271.195312 57.070312 271.761719 C 57.761719 272.328125 58.476562 272.863281 59.222656 273.359375 C 59.964844 273.855469 60.730469 274.316406 61.519531 274.738281 C 62.308594 275.160156 63.117188 275.539062 63.941406 275.882812 C 64.769531 276.226562 65.609375 276.527344 66.464844 276.785156 C 67.324219 277.046875 68.1875 277.261719 69.066406 277.4375 C 69.945312 277.613281 70.828125 277.742188 71.71875 277.832031 C 72.609375 277.917969 73.5 277.960938 74.394531 277.960938 C 75.289062 277.960938 76.179688 277.917969 77.070312 277.832031 C 77.960938 277.742188 78.84375 277.613281 79.722656 277.4375 C 80.601562 277.261719 81.464844 277.046875 82.324219 276.785156 C 83.179688 276.527344 84.019531 276.226562 84.847656 275.882812 C 85.671875 275.539062 86.480469 275.160156 87.269531 274.738281 C 88.058594 274.316406 88.824219 273.855469 89.566406 273.359375 C 90.3125 272.863281 91.027344 272.328125 91.71875 271.761719 C 92.410156 271.195312 93.074219 270.59375 93.707031 269.960938 C 94.339844 269.332031 94.9375 268.667969 95.507812 267.976562 C 96.074219 267.285156 96.605469 266.566406 97.101562 265.824219 C 97.597656 265.082031 98.058594 264.3125 98.480469 263.523438 C 98.902344 262.738281 99.285156 261.929688 99.625 261.101562 C 99.96875 260.277344 100.269531 259.433594 100.527344 258.578125 C 100.789062 257.722656 101.007812 256.855469 101.179688 255.980469 C 101.355469 255.101562 101.484375 254.21875 101.574219 253.328125 C 101.660156 252.4375 101.707031 251.546875 101.707031 250.652344 C 101.707031 249.757812 101.660156 248.863281 101.574219 247.972656 C 101.484375 247.082031 101.355469 246.199219 101.179688 245.324219 C 101.007812 244.445312 100.789062 243.578125 100.527344 242.722656 C 100.269531 241.867188 99.96875 241.027344 99.625 240.199219 C 99.285156 239.375 98.902344 238.566406 98.480469 237.777344 C 98.058594 236.988281 97.597656 236.222656 97.101562 235.476562 C 96.605469 234.734375 96.074219 234.015625 95.507812 233.324219 C 94.9375 232.632812 94.339844 231.972656 93.707031 231.339844 C 93.074219 230.707031 92.410156 230.105469 91.71875 229.539062 C 91.027344 228.972656 90.3125 228.441406 89.566406 227.941406 C 88.824219 227.445312 88.058594 226.988281 87.269531 226.566406 C 86.480469 226.144531 85.671875 225.761719 84.847656 225.417969 C 84.019531 225.078125 83.179688 224.777344 82.324219 224.515625 C 81.464844 224.257812 80.601562 224.039062 79.722656 223.863281 C 78.84375 223.691406 77.960938 223.558594 77.070312 223.472656 C 76.179688 223.382812 75.289062 223.339844 74.394531 223.339844 Z M 74.394531 205.132812 " fill-opacity="1" fill-rule="nonzero"/></g><g clip-path="url(#e23ef8eedd)"><g clip-path="url(#b6f1a7018b)"><path fill="#fca311" d="M 224.914062 98.1875 L 116.195312 206.90625 C 115.804688 207.296875 115.398438 207.667969 114.96875 208.019531 C 114.542969 208.367188 114.097656 208.699219 113.640625 209.003906 C 113.179688 209.3125 112.707031 209.59375 112.21875 209.855469 C 111.730469 210.117188 111.234375 210.351562 110.722656 210.5625 C 110.210938 210.777344 109.691406 210.960938 109.164062 211.121094 C 108.632812 211.28125 108.097656 211.417969 107.558594 211.523438 C 107.015625 211.632812 106.46875 211.714844 105.917969 211.765625 C 105.367188 211.820312 104.816406 211.847656 104.265625 211.847656 C 103.710938 211.847656 103.160156 211.820312 102.609375 211.765625 C 102.058594 211.714844 101.515625 211.632812 100.972656 211.523438 C 100.429688 211.417969 99.894531 211.28125 99.367188 211.121094 C 98.835938 210.960938 98.316406 210.777344 97.808594 210.5625 C 97.296875 210.351562 96.796875 210.117188 96.308594 209.855469 C 95.820312 209.59375 95.347656 209.3125 94.890625 209.003906 C 94.429688 208.699219 93.984375 208.367188 93.558594 208.019531 C 93.132812 207.667969 92.722656 207.296875 92.332031 206.90625 C 91.941406 206.515625 91.570312 206.105469 91.21875 205.679688 C 90.871094 205.25 90.539062 204.808594 90.234375 204.347656 C 89.925781 203.890625 89.644531 203.414062 89.382812 202.929688 C 89.121094 202.441406 88.886719 201.941406 88.675781 201.429688 C 88.460938 200.921875 88.277344 200.402344 88.117188 199.871094 C 87.957031 199.34375 87.820312 198.808594 87.714844 198.265625 C 87.605469 197.722656 87.523438 197.175781 87.472656 196.628906 C 87.417969 196.078125 87.390625 195.527344 87.390625 194.972656 C 87.390625 194.421875 87.417969 193.871094 87.472656 193.320312 C 87.523438 192.769531 87.605469 192.222656 87.714844 191.679688 C 87.820312 191.140625 87.957031 190.605469 88.117188 190.074219 C 88.277344 189.546875 88.460938 189.027344 88.675781 188.515625 C 88.886719 188.003906 89.121094 187.507812 89.382812 187.019531 C 89.644531 186.53125 89.925781 186.058594 90.234375 185.597656 C 90.539062 185.140625 90.871094 184.695312 91.21875 184.269531 C 91.570312 183.839844 91.941406 183.433594 92.332031 183.042969 L 201.050781 74.324219 C 201.441406 73.933594 201.847656 73.5625 202.277344 73.210938 C 202.703125 72.859375 203.148438 72.53125 203.605469 72.226562 C 204.066406 71.917969 204.539062 71.632812 205.027344 71.375 C 205.515625 71.113281 206.015625 70.878906 206.523438 70.664062 C 207.035156 70.453125 207.554688 70.269531 208.082031 70.109375 C 208.613281 69.945312 209.148438 69.8125 209.691406 69.707031 C 210.230469 69.597656 210.777344 69.515625 211.328125 69.460938 C 211.878906 69.40625 212.429688 69.382812 212.980469 69.382812 C 213.535156 69.382812 214.085938 69.40625 214.636719 69.460938 C 215.1875 69.515625 215.730469 69.597656 216.273438 69.707031 C 216.816406 69.8125 217.351562 69.945312 217.878906 70.109375 C 218.410156 70.269531 218.929688 70.453125 219.441406 70.664062 C 219.949219 70.878906 220.449219 71.113281 220.9375 71.375 C 221.425781 71.632812 221.898438 71.917969 222.355469 72.226562 C 222.816406 72.53125 223.261719 72.859375 223.6875 73.210938 C 224.113281 73.5625 224.523438 73.933594 224.914062 74.324219 C 225.304688 74.714844 225.675781 75.125 226.027344 75.550781 C 226.378906 75.976562 226.707031 76.421875 227.011719 76.878906 C 227.320312 77.339844 227.605469 77.8125 227.863281 78.300781 C 228.125 78.789062 228.359375 79.289062 228.574219 79.796875 C 228.785156 80.308594 228.96875 80.828125 229.128906 81.359375 C 229.289062 81.886719 229.425781 82.421875 229.53125 82.964844 C 229.640625 83.507812 229.722656 84.050781 229.777344 84.601562 C 229.828125 85.152344 229.855469 85.703125 229.855469 86.257812 C 229.855469 86.808594 229.828125 87.359375 229.777344 87.910156 C 229.722656 88.460938 229.640625 89.007812 229.53125 89.546875 C 229.425781 90.089844 229.289062 90.625 229.128906 91.15625 C 228.96875 91.683594 228.785156 92.203125 228.574219 92.714844 C 228.359375 93.222656 228.125 93.722656 227.863281 94.210938 C 227.605469 94.699219 227.320312 95.171875 227.011719 95.632812 C 226.707031 96.089844 226.378906 96.535156 226.027344 96.960938 C 225.675781 97.386719 225.304688 97.796875 224.914062 98.1875 Z M 224.914062 98.1875 " fill-opacity="1" fill-rule="nonzero"/><path fill="#fca311" d="M 224.914062 98.1875 L 116.195312 206.90625 C 115.804688 207.296875 115.398438 207.667969 114.96875 208.019531 C 114.542969 208.367188 114.097656 208.699219 113.640625 209.003906 C 113.179688 209.3125 112.707031 209.59375 112.21875 209.855469 C 111.730469 210.117188 111.234375 210.351562 110.722656 210.5625 C 110.210938 210.777344 109.691406 210.960938 109.164062 211.121094 C 108.632812 211.28125 108.097656 211.417969 107.558594 211.523438 C 107.015625 211.632812 106.46875 211.714844 105.917969 211.765625 C 105.367188 211.820312 104.816406 211.847656 104.265625 211.847656 C 103.710938 211.847656 103.160156 211.820312 102.609375 211.765625 C 102.058594 211.714844 101.515625 211.632812 100.972656 211.523438 C 100.429688 211.417969 99.894531 211.28125 99.367188 211.121094 C 98.835938 210.960938 98.316406 210.777344 97.808594 210.5625 C 97.296875 210.351562 96.796875 210.117188 96.308594 209.855469 C 95.820312 209.59375 95.347656 209.3125 94.890625 209.003906 C 94.429688 208.699219 93.984375 208.367188 93.558594 208.019531 C 93.132812 207.667969 92.722656 207.296875 92.332031 206.90625 C 91.941406 206.515625 91.570312 206.105469 91.21875 205.679688 C 90.871094 205.25 90.539062 204.808594 90.234375 204.347656 C 89.925781 203.890625 89.644531 203.414062 89.382812 202.929688 C 89.121094 202.441406 88.886719 201.941406 88.675781 201.429688 C 88.460938 200.921875 88.277344 200.402344 88.117188 199.871094 C 87.957031 199.34375 87.820312 198.808594 87.714844 198.265625 C 87.605469 197.722656 87.523438 197.175781 87.472656 196.628906 C 87.417969 196.078125 87.390625 195.527344 87.390625 194.972656 C 87.390625 194.421875 87.417969 193.871094 87.472656 193.320312 C 87.523438 192.769531 87.605469 192.222656 87.714844 191.679688 C 87.820312 191.140625 87.957031 190.605469 88.117188 190.074219 C 88.277344 189.546875 88.460938 189.027344 88.675781 188.515625 C 88.886719 188.003906 89.121094 187.507812 89.382812 187.019531 C 89.644531 186.53125 89.925781 186.058594 90.234375 185.597656 C 90.539062 185.140625 90.871094 184.695312 91.21875 184.269531 C 91.570312 183.839844 91.941406 183.433594 92.332031 183.042969 L 201.050781 74.324219 C 201.441406 73.933594 201.847656 73.5625 202.277344 73.210938 C 202.703125 72.859375 203.148438 72.53125 203.605469 72.226562 C 204.066406 71.917969 204.539062 71.632812 205.027344 71.375 C 205.515625 71.113281 206.015625 70.878906 206.523438 70.664062 C 207.035156 70.453125 207.554688 70.269531 208.082031 70.109375 C 208.613281 69.945312 209.148438 69.8125 209.691406 69.707031 C 210.230469 69.597656 210.777344 69.515625 211.328125 69.460938 C 211.878906 69.40625 212.429688 69.382812 212.980469 69.382812 C 213.535156 69.382812 214.085938 69.40625 214.636719 69.460938 C 215.1875 69.515625 215.730469 69.597656 216.273438 69.707031 C 216.816406 69.8125 217.351562 69.945312 217.878906 70.109375 C 218.410156 70.269531 218.929688 70.453125 219.441406 70.664062 C 219.949219 70.878906 220.449219 71.113281 220.9375 71.375 C 221.425781 71.632812 221.898438 71.917969 222.355469 72.226562 C 222.816406 72.53125 223.261719 72.859375 223.6875 73.210938 C 224.113281 73.5625 224.523438 73.933594 224.914062 74.324219 C 225.304688 74.714844 225.675781 75.125 226.027344 75.550781 C 226.378906 75.976562 226.707031 76.421875 227.011719 76.878906 C 227.320312 77.339844 227.605469 77.8125 227.863281 78.300781 C 228.125 78.789062 228.359375 79.289062 228.574219 79.796875 C 228.785156 80.308594 228.96875 80.828125 229.128906 81.359375 C 229.289062 81.886719 229.425781 82.421875 229.53125 82.964844 C 229.640625 83.507812 229.722656 84.050781 229.777344 84.601562 C 229.828125 85.152344 229.855469 85.703125 229.855469 86.257812 C 229.855469 86.808594 229.828125 87.359375 229.777344 87.910156 C 229.722656 88.460938 229.640625 89.007812 229.53125 89.546875 C 229.425781 90.089844 229.289062 90.625 229.128906 91.15625 C 228.96875 91.683594 228.785156 92.203125 228.574219 92.714844 C 228.359375 93.222656 228.125 93.722656 227.863281 94.210938 C 227.605469 94.699219 227.320312 95.171875 227.011719 95.632812 C 226.707031 96.089844 226.378906 96.535156 226.027344 96.960938 C 225.675781 97.386719 225.304688 97.796875 224.914062 98.1875 Z M 224.914062 98.1875 " fill-opacity="1" fill-rule="nonzero"/></g></g></svg>