<?xml version="1.0" encoding="UTF-8" standalone="no"?>
<svg
   width="723"
   zoomAndPan="magnify"
   viewBox="0 0 542.25 126.75"
   height="169"
   preserveAspectRatio="xMidYMid"
   version="1.0"
   id="svg107"
   sodipodi:docname="lekker-full-white-orange.svg"
   inkscape:version="1.2.2 (b0a84865, 2022-12-01)"
   xmlns:inkscape="http://www.inkscape.org/namespaces/inkscape"
   xmlns:sodipodi="http://sodipodi.sourceforge.net/DTD/sodipodi-0.dtd"
   xmlns="http://www.w3.org/2000/svg"
   xmlns:svg="http://www.w3.org/2000/svg">
  <sodipodi:namedview
     id="namedview109"
     pagecolor="#ffffff"
     bordercolor="#000000"
     borderopacity="0.25"
     inkscape:showpageshadow="2"
     inkscape:pageopacity="0.0"
     inkscape:pagecheckerboard="0"
     inkscape:deskcolor="#d1d1d1"
     showgrid="false"
     showguides="false"
     inkscape:zoom="0.944"
     inkscape:cx="404.66102"
     inkscape:cy="141.41949"
     inkscape:window-width="1374"
     inkscape:window-height="669"
     inkscape:window-x="43"
     inkscape:window-y="25"
     inkscape:window-maximized="0"
     inkscape:current-layer="svg107" />
  <defs
     id="defs29">
    <clipPath
       id="7c44c142f0">
      <path
         d="M 0.5,0 H 561.50391 V 187 H 0.5 Z m 0,0"
         clip-rule="nonzero"
         id="path2" />
    </clipPath>
    <clipPath
       id="3bb5deedb3">
      <path
         d="M 245,4 H 442 V 187 H 245 Z m 0,0"
         clip-rule="nonzero"
         id="path5" />
    </clipPath>
    <clipPath
       id="24ac9d63b5">
      <path
         d="M 302,4 H 499 V 187 H 302 Z m 0,0"
         clip-rule="nonzero"
         id="path8" />
    </clipPath>
    <clipPath
       id="9e76bb1017">
      <path
         d="M 473.35937,52.789062 H 532 v 58.652348 h -58.64063 z m 0,0"
         clip-rule="nonzero"
         id="path11" />
    </clipPath>
    <clipPath
       id="61a1d0cef9">
      <path
         d="M 411,18 H 561.50391 V 187 H 411 Z m 0,0"
         clip-rule="nonzero"
         id="path14" />
    </clipPath>
    <clipPath
       id="3e7fbe6bf0">
      <path
         d="m 61.117188,49.03125 h 95.449222 v 95.44922 H 61.117188 Z m 0,0"
         clip-rule="nonzero"
         id="path17" />
    </clipPath>
    <clipPath
       id="4a2d36d453">
      <path
         d="M 14.777344,98.136719 H 61.117188 V 144.48047 H 14.777344 Z m 0,0"
         clip-rule="nonzero"
         id="path20" />
    </clipPath>
    <clipPath
       id="6d66164149">
      <path
         d="M 18,29 H 96 V 98 H 18 Z m 0,0"
         clip-rule="nonzero"
         id="path23" />
    </clipPath>
    <clipPath
       id="e4dad976c2">
      <path
         d="M 98.78125,39.058594 25.855469,100.63672 14.773438,87.507812 87.695312,25.929688 Z m 0,0"
         clip-rule="nonzero"
         id="path26" />
    </clipPath>
  </defs>
  <path
     stroke-linecap="round"
     fill="none"
     stroke-linejoin="miter"
     d="M 215.70703,39.953126 V 99.04689"
     stroke="#fca311"
     stroke-width="15.0007"
     stroke-opacity="1"
     stroke-miterlimit="4"
     id="path39" />
  <path
     stroke-linecap="round"
     fill="none"
     stroke-linejoin="miter"
     d="M 248.59374,99.52344 H 216.40232"
     stroke="#fca311"
     stroke-width="14.9771"
     stroke-opacity="1"
     stroke-miterlimit="4"
     id="path41" />
  <path
     stroke-linecap="round"
     fill="none"
     stroke-linejoin="miter"
     d="M 298.24218,98.85547 H 266.05076"
     stroke="#fca311"
     stroke-width="14.9771"
     stroke-opacity="1"
     stroke-miterlimit="4"
     id="path43" />
  <path
     stroke-linecap="round"
     fill="none"
     stroke-linejoin="miter"
     d="M 298.24218,39.199221 H 266.05076"
     stroke="#fca311"
     stroke-width="14.9771"
     stroke-opacity="1"
     stroke-miterlimit="4"
     id="path45" />
  <path
     stroke-linecap="round"
     fill="none"
     stroke-linejoin="miter"
     d="M 315,39.285158 V 98.37892"
     stroke="#fca311"
     stroke-width="15.0007"
     stroke-opacity="1"
     stroke-miterlimit="4"
     id="path47" />
  <path
     stroke-linecap="round"
     fill="none"
     stroke-linejoin="miter"
     d="m 354.97266,39.468747 -36.7539,31.843744"
     stroke="#fca311"
     stroke-width="14.9913"
     stroke-opacity="1"
     stroke-miterlimit="4"
     id="path49" />
  <g
     clip-path="url(#3bb5deedb3)"
     id="g53"
     transform="translate(-1.5,-24)">
    <path
       stroke-linecap="round"
       transform="matrix(-0.471922,-0.584626,0.582556,-0.470251,355.50674,132.03944)"
       fill="none"
       stroke-linejoin="miter"
       d="M 9.998253,9.998939 64.734897,9.997931"
       stroke="#fca311"
       stroke-width="20"
       stroke-opacity="1"
       stroke-miterlimit="4"
       id="path51" />
  </g>
  <path
     stroke-linecap="round"
     fill="none"
     stroke-linejoin="miter"
     d="M 453.04688,68.695313 H 429.1172"
     stroke="#fca311"
     stroke-width="14.9914"
     stroke-opacity="1"
     stroke-miterlimit="4"
     id="path55" />
  <path
     stroke-linecap="round"
     fill="none"
     stroke-linejoin="miter"
     d="M 461.36718,99.26954 H 429.17576"
     stroke="#fca311"
     stroke-width="14.9771"
     stroke-opacity="1"
     stroke-miterlimit="4"
     id="path57" />
  <path
     stroke-linecap="round"
     fill="none"
     stroke-linejoin="miter"
     d="M 461.36718,38.042971 H 429.17576"
     stroke="#fca311"
     stroke-width="14.9771"
     stroke-opacity="1"
     stroke-miterlimit="4"
     id="path59" />
  <path
     stroke-linecap="round"
     fill="none"
     stroke-linejoin="miter"
     d="M 428.47656,39.953126 V 99.04689"
     stroke="#fca311"
     stroke-width="15.0007"
     stroke-opacity="1"
     stroke-miterlimit="4"
     id="path61" />
  <path
     stroke-linecap="round"
     fill="none"
     stroke-linejoin="miter"
     d="M 477.57813,39.285158 V 98.37892"
     stroke="#fca311"
     stroke-width="15.0007"
     stroke-opacity="1"
     stroke-miterlimit="4"
     id="path63" />
  <path
     stroke-linecap="round"
     fill="none"
     stroke-linejoin="miter"
     d="M 371.73829,39.453127 V 98.5508"
     stroke="#fca311"
     stroke-width="15.0007"
     stroke-opacity="1"
     stroke-miterlimit="4"
     id="path65" />
  <path
     stroke-linecap="round"
     fill="none"
     stroke-linejoin="miter"
     d="M 411.71093,39.640621 374.95704,71.484366"
     stroke="#fca311"
     stroke-width="14.9913"
     stroke-opacity="1"
     stroke-miterlimit="4"
     id="path67" />
  <g
     clip-path="url(#24ac9d63b5)"
     id="g71"
     transform="translate(-1.5,-24)">
    <path
       stroke-linecap="round"
       transform="matrix(-0.471922,-0.584626,0.582556,-0.470251,412.24556,132.21087)"
       fill="none"
       stroke-linejoin="miter"
       d="M 10.002287,10.001282 64.734885,9.996996"
       stroke="#fca311"
       stroke-width="20"
       stroke-opacity="1"
       stroke-miterlimit="4"
       id="path69" />
  </g>
  <g
     clip-path="url(#9e76bb1017)"
     id="g75"
     transform="translate(-1.5,-24)">
    <path
       fill="#fca311"
       d="m 502.66406,111.44141 c -16.13672,0 -29.30469,-13.167972 -29.30469,-29.34766 0,-16.136719 13.16797,-29.304688 29.30469,-29.304688 16.17578,0 29.30469,13.167969 29.30469,29.304688 0.043,16.179688 -13.12891,29.34766 -29.30469,29.34766 z m 0,-42.519535 c -7.23828,0 -13.17187,5.933594 -13.17187,13.171875 0,7.238281 5.93359,13.167969 13.17187,13.167969 7.23828,0 13.16797,-5.929688 13.16797,-13.167969 0,-7.238281 -5.88672,-13.171875 -13.16797,-13.171875 z m 0,0"
       fill-opacity="1"
       fill-rule="nonzero"
       id="path73" />
  </g>
  <g
     clip-path="url(#61a1d0cef9)"
     id="g79"
     transform="translate(-1.5,-24)">
    <path
       stroke-linecap="round"
       transform="matrix(-0.616408,-0.421879,0.422848,-0.617824,527.56447,134.30319)"
       fill="none"
       stroke-linejoin="miter"
       d="m 9.999898,9.999931 48.156166,5.57e-4"
       stroke="#fca311"
       stroke-width="20"
       stroke-opacity="1"
       stroke-miterlimit="4"
       id="path77" />
  </g>
  <path
     stroke-linecap="round"
     fill="none"
     stroke-linejoin="miter"
     d="M 502.73047,36.539064 H 478.67578"
     stroke="#fca311"
     stroke-width="14.9286"
     stroke-opacity="1"
     stroke-miterlimit="4"
     id="path81" />
  <path
     stroke-linecap="round"
     fill="none"
     stroke-linejoin="miter"
     d="M 265.72656,39.695314 V 98.79299"
     stroke="#fca311"
     stroke-width="15.0007"
     stroke-opacity="1"
     stroke-miterlimit="4"
     id="path83" />
  <path
     stroke-linecap="round"
     fill="none"
     stroke-linejoin="miter"
     d="M 291.99609,68.285158 H 268.0625"
     stroke="#fca311"
     stroke-width="14.9914"
     stroke-opacity="1"
     stroke-miterlimit="4"
     id="path85" />
  <g
     clip-path="url(#3e7fbe6bf0)"
     id="g91"
     transform="translate(-1.5,-24)">
    <path
       fill="#fca311"
       d="m 108.84375,49.03125 c 1.5625,0 3.12109,0.07813 4.67578,0.230469 1.55469,0.152343 3.10156,0.382812 4.63281,0.6875 1.53125,0.304687 3.04688,0.683593 4.54297,1.136719 1.4961,0.453124 2.96485,0.980468 4.41016,1.578124 1.4414,0.597657 2.85547,1.265626 4.23437,2.003907 1.37891,0.734375 2.71485,1.539062 4.01563,2.40625 1.30078,0.871093 2.55469,1.800781 3.76172,2.789062 1.20703,0.992188 2.36328,2.042969 3.46875,3.148438 1.10547,1.105469 2.15625,2.261719 3.14453,3.46875 0.99219,1.207031 1.92187,2.460937 2.79297,3.761719 0.86718,1.300781 1.66797,2.636718 2.40625,4.015624 0.73828,1.378907 1.40625,2.789063 2.0039,4.234376 0.59766,1.445312 1.1211,2.914062 1.57813,4.410156 0.45312,1.496094 0.83203,3.011718 1.13672,4.542968 0.30468,1.53125 0.53515,3.078126 0.6875,4.632813 0.15234,1.554687 0.23047,3.113281 0.23047,4.675781 0,1.566406 -0.0781,3.125 -0.23047,4.679684 -0.15235,1.55469 -0.38282,3.09766 -0.6875,4.63282 -0.30469,1.53125 -0.6836,3.04687 -1.13672,4.54297 -0.45703,1.49609 -0.98047,2.96484 -1.57813,4.41015 -0.59765,1.44141 -1.26562,2.85547 -2.0039,4.23438 -0.73828,1.375 -1.53907,2.71484 -2.40625,4.01562 -0.8711,1.30078 -1.80078,2.55469 -2.79297,3.76172 -0.98828,1.20703 -2.03906,2.36328 -3.14453,3.46875 -1.10547,1.10547 -2.26172,2.15625 -3.46875,3.14453 -1.20703,0.99219 -2.46094,1.92188 -3.76172,2.79297 -1.30078,0.86719 -2.63672,1.66797 -4.01563,2.40625 -1.3789,0.73828 -2.79297,1.40234 -4.23437,2.00391 -1.44531,0.59765 -2.91406,1.12109 -4.41016,1.57812 -1.49609,0.45313 -3.01172,0.83203 -4.54297,1.13672 -1.53125,0.30469 -3.07812,0.53516 -4.63281,0.6875 -1.55469,0.15234 -3.11328,0.23047 -4.67578,0.23047 -1.56641,0 -3.125,-0.0781 -4.67969,-0.23047 -1.55468,-0.15234 -3.10156,-0.38281 -4.63281,-0.6875 -1.53125,-0.30469 -3.046875,-0.68359 -4.542969,-1.13672 -1.496093,-0.45703 -2.964843,-0.98047 -4.410156,-1.57812 -1.441406,-0.60157 -2.855469,-1.26563 -4.234375,-2.00391 -1.378906,-0.73828 -2.714844,-1.53906 -4.015625,-2.40625 -1.300781,-0.87109 -2.554687,-1.80078 -3.761719,-2.79297 -1.207031,-0.98828 -2.363281,-2.03906 -3.46875,-3.14453 -1.105468,-1.10547 -2.15625,-2.26172 -3.144531,-3.46875 -0.992187,-1.20703 -1.921875,-2.46094 -2.792969,-3.76172 -0.867187,-1.30078 -1.667968,-2.64062 -2.40625,-4.01562 -0.738281,-1.37891 -1.40625,-2.79297 -2.003906,-4.23438 -0.597656,-1.44531 -1.121094,-2.91406 -1.578125,-4.41015 -0.453125,-1.4961 -0.832031,-3.01172 -1.136719,-4.54297 -0.304687,-1.53516 -0.535156,-3.07813 -0.6875,-4.63282 -0.152344,-1.554684 -0.230468,-3.113278 -0.230468,-4.679684 0,-1.5625 0.07812,-3.121094 0.230468,-4.675781 0.152344,-1.554687 0.382813,-3.101563 0.6875,-4.632813 0.304688,-1.53125 0.683594,-3.046874 1.136719,-4.542968 0.457031,-1.496094 0.980469,-2.964844 1.578125,-4.410156 0.597656,-1.445313 1.265625,-2.855469 2.003906,-4.234376 0.738282,-1.378906 1.539063,-2.714843 2.40625,-4.015624 0.871094,-1.300782 1.800782,-2.554688 2.792969,-3.761719 0.988281,-1.207031 2.039063,-2.363281 3.144531,-3.46875 1.105469,-1.105469 2.261719,-2.15625 3.46875,-3.148438 1.207032,-0.988281 2.460938,-1.917969 3.761719,-2.789062 1.300781,-0.867188 2.636719,-1.671875 4.015625,-2.40625 1.378906,-0.738281 2.792969,-1.40625 4.234375,-2.003907 1.445313,-0.597656 2.914063,-1.125 4.410156,-1.578124 C 96.484375,50.632812 98,50.253906 99.53125,49.949219 c 1.53125,-0.304688 3.07813,-0.535157 4.63281,-0.6875 1.55469,-0.152344 3.11328,-0.230469 4.67969,-0.230469 v 19.089844 c -0.94141,0 -1.875,0.04687 -2.80859,0.136718 -0.9336,0.09375 -1.85938,0.230469 -2.78125,0.414063 -0.91797,0.183594 -1.82813,0.410156 -2.72266,0.683594 -0.898438,0.269531 -1.78125,0.585937 -2.648438,0.945312 -0.863281,0.359375 -1.710937,0.761719 -2.539062,1.203125 -0.828125,0.441406 -1.628906,0.921875 -2.410156,1.441406 -0.78125,0.523438 -1.53125,1.082032 -2.257813,1.675782 -0.722656,0.59375 -1.417969,1.222656 -2.082031,1.886718 -0.664062,0.664063 -1.292969,1.359376 -1.886719,2.082032 -0.59375,0.726562 -1.152343,1.476562 -1.671875,2.257812 -0.523437,0.78125 -1.003906,1.582032 -1.445312,2.410156 -0.441406,0.828126 -0.84375,1.671876 -1.203125,2.539063 -0.359375,0.867187 -0.671875,1.75 -0.945313,2.648437 -0.273437,0.894532 -0.5,1.804688 -0.683594,2.722657 -0.183593,0.921875 -0.320312,1.847656 -0.410156,2.78125 -0.09375,0.933593 -0.140625,1.867187 -0.140625,2.804687 0,0.9375 0.04687,1.875 0.140625,2.808594 0.08984,0.93359 0.226563,1.85938 0.410156,2.77734 0.183594,0.92188 0.410157,1.83204 0.683594,2.72657 0.273438,0.89843 0.585938,1.78125 0.945313,2.64843 0.359375,0.86329 0.761719,1.71094 1.203125,2.53907 0.441406,0.82812 0.921875,1.6289 1.445312,2.41015 0.519532,0.78125 1.078125,1.53125 1.671875,2.25782 0.59375,0.72265 1.222657,1.41796 1.886719,2.08203 0.664062,0.66015 1.359375,1.29297 2.082031,1.88672 0.726563,0.59375 1.476563,1.15234 2.257813,1.67187 0.78125,0.52344 1.582031,1.00391 2.410156,1.44531 0.828125,0.44141 1.675781,0.84375 2.539062,1.20313 0.867188,0.35937 1.75,0.67187 2.648438,0.94531 0.89453,0.27344 1.80469,0.5 2.72266,0.68359 0.92187,0.1836 1.84765,0.32032 2.78125,0.41016 0.93359,0.0937 1.86718,0.14063 2.80859,0.14063 0.9375,0 1.87109,-0.0469 2.80469,-0.14063 0.93359,-0.0898 1.85937,-0.22656 2.78125,-0.41016 0.91797,-0.18359 1.82812,-0.41015 2.72265,-0.68359 0.89844,-0.27344 1.78125,-0.58594 2.64844,-0.94531 0.86328,-0.35938 1.71094,-0.76172 2.53906,-1.20313 0.82813,-0.4414 1.62891,-0.92187 2.41016,-1.44531 0.78125,-0.51953 1.53125,-1.07812 2.25781,-1.67187 0.72266,-0.59375 1.41797,-1.22657 2.08203,-1.88672 0.66407,-0.66407 1.29297,-1.35938 1.88672,-2.08203 0.59375,-0.72657 1.15235,-1.47657 1.67188,-2.25782 0.52343,-0.78125 1.0039,-1.58203 1.44531,-2.41015 0.44141,-0.82813 0.84375,-1.67578 1.20312,-2.53907 0.35938,-0.86718 0.67188,-1.75 0.94532,-2.64843 0.27343,-0.89453 0.5,-1.80469 0.68359,-2.72657 0.18359,-0.91796 0.32031,-1.84375 0.41406,-2.77734 0.0898,-0.933594 0.13672,-1.871094 0.13672,-2.808594 0,-0.9375 -0.0469,-1.871094 -0.13672,-2.804687 -0.0937,-0.933594 -0.23047,-1.859375 -0.41406,-2.78125 -0.18359,-0.917969 -0.41016,-1.828125 -0.68359,-2.722657 -0.27344,-0.898437 -0.58594,-1.78125 -0.94532,-2.648437 -0.35937,-0.867187 -0.76171,-1.710937 -1.20312,-2.539063 -0.44141,-0.828124 -0.92188,-1.628906 -1.44531,-2.410156 -0.51953,-0.78125 -1.07813,-1.53125 -1.67188,-2.257812 -0.59375,-0.722656 -1.22265,-1.417969 -1.88672,-2.082032 -0.66406,-0.664062 -1.35937,-1.292968 -2.08203,-1.886718 -0.72656,-0.59375 -1.47656,-1.152344 -2.25781,-1.675782 -0.78125,-0.519531 -1.58203,-1 -2.41016,-1.441406 -0.82812,-0.441406 -1.67578,-0.84375 -2.53906,-1.203125 -0.86719,-0.359375 -1.75,-0.675781 -2.64844,-0.945312 -0.89453,-0.273438 -1.80468,-0.5 -2.72265,-0.683594 -0.92188,-0.183594 -1.84766,-0.320313 -2.78125,-0.414063 -0.9336,-0.08984 -1.86719,-0.136718 -2.80469,-0.136718 z m 0,0"
       fill-opacity="1"
       fill-rule="nonzero"
       id="path87" />
    <path
       fill="#fca311"
       d="m 108.84375,49.03125 c 1.5625,0 3.12109,0.07813 4.67578,0.230469 1.55469,0.152343 3.10156,0.382812 4.63281,0.6875 1.53125,0.304687 3.04688,0.683593 4.54297,1.136719 1.4961,0.453124 2.96485,0.980468 4.41016,1.578124 1.4414,0.597657 2.85547,1.265626 4.23437,2.003907 1.37891,0.734375 2.71485,1.539062 4.01563,2.40625 1.30078,0.871093 2.55469,1.800781 3.76172,2.789062 1.20703,0.992188 2.36328,2.042969 3.46875,3.148438 1.10547,1.105469 2.15625,2.261719 3.14453,3.46875 0.99219,1.207031 1.92187,2.460937 2.79297,3.761719 0.86718,1.300781 1.66797,2.636718 2.40625,4.015624 0.73828,1.378907 1.40625,2.789063 2.0039,4.234376 0.59766,1.445312 1.1211,2.914062 1.57813,4.410156 0.45312,1.496094 0.83203,3.011718 1.13672,4.542968 0.30468,1.53125 0.53515,3.078126 0.6875,4.632813 0.15234,1.554687 0.23047,3.113281 0.23047,4.675781 0,1.566406 -0.0781,3.125 -0.23047,4.679684 -0.15235,1.55469 -0.38282,3.09766 -0.6875,4.63282 -0.30469,1.53125 -0.6836,3.04687 -1.13672,4.54297 -0.45703,1.49609 -0.98047,2.96484 -1.57813,4.41015 -0.59765,1.44141 -1.26562,2.85547 -2.0039,4.23438 -0.73828,1.375 -1.53907,2.71484 -2.40625,4.01562 -0.8711,1.30078 -1.80078,2.55469 -2.79297,3.76172 -0.98828,1.20703 -2.03906,2.36328 -3.14453,3.46875 -1.10547,1.10547 -2.26172,2.15625 -3.46875,3.14453 -1.20703,0.99219 -2.46094,1.92188 -3.76172,2.79297 -1.30078,0.86719 -2.63672,1.66797 -4.01563,2.40625 -1.3789,0.73828 -2.79297,1.40234 -4.23437,2.00391 -1.44531,0.59765 -2.91406,1.12109 -4.41016,1.57812 -1.49609,0.45313 -3.01172,0.83203 -4.54297,1.13672 -1.53125,0.30469 -3.07812,0.53516 -4.63281,0.6875 -1.55469,0.15234 -3.11328,0.23047 -4.67578,0.23047 -1.56641,0 -3.125,-0.0781 -4.67969,-0.23047 -1.55468,-0.15234 -3.10156,-0.38281 -4.63281,-0.6875 -1.53125,-0.30469 -3.046875,-0.68359 -4.542969,-1.13672 -1.496093,-0.45703 -2.964843,-0.98047 -4.410156,-1.57812 -1.441406,-0.60157 -2.855469,-1.26563 -4.234375,-2.00391 -1.378906,-0.73828 -2.714844,-1.53906 -4.015625,-2.40625 -1.300781,-0.87109 -2.554687,-1.80078 -3.761719,-2.79297 -1.207031,-0.98828 -2.363281,-2.03906 -3.46875,-3.14453 -1.105468,-1.10547 -2.15625,-2.26172 -3.144531,-3.46875 -0.992187,-1.20703 -1.921875,-2.46094 -2.792969,-3.76172 -0.867187,-1.30078 -1.667968,-2.64062 -2.40625,-4.01562 -0.738281,-1.37891 -1.40625,-2.79297 -2.003906,-4.23438 -0.597656,-1.44531 -1.121094,-2.91406 -1.578125,-4.41015 -0.453125,-1.4961 -0.832031,-3.01172 -1.136719,-4.54297 -0.304687,-1.53516 -0.535156,-3.07813 -0.6875,-4.63282 -0.152344,-1.554684 -0.230468,-3.113278 -0.230468,-4.679684 0,-1.5625 0.07812,-3.121094 0.230468,-4.675781 0.152344,-1.554687 0.382813,-3.101563 0.6875,-4.632813 0.304688,-1.53125 0.683594,-3.046874 1.136719,-4.542968 0.457031,-1.496094 0.980469,-2.964844 1.578125,-4.410156 0.597656,-1.445313 1.265625,-2.855469 2.003906,-4.234376 0.738282,-1.378906 1.539063,-2.714843 2.40625,-4.015624 0.871094,-1.300782 1.800782,-2.554688 2.792969,-3.761719 0.988281,-1.207031 2.039063,-2.363281 3.144531,-3.46875 1.105469,-1.105469 2.261719,-2.15625 3.46875,-3.148438 1.207032,-0.988281 2.460938,-1.917969 3.761719,-2.789062 1.300781,-0.867188 2.636719,-1.671875 4.015625,-2.40625 1.378906,-0.738281 2.792969,-1.40625 4.234375,-2.003907 1.445313,-0.597656 2.914063,-1.125 4.410156,-1.578124 C 96.484375,50.632812 98,50.253906 99.53125,49.949219 c 1.53125,-0.304688 3.07813,-0.535157 4.63281,-0.6875 1.55469,-0.152344 3.11328,-0.230469 4.67969,-0.230469 v 19.089844 c -0.94141,0 -1.875,0.04687 -2.80859,0.136718 -0.9336,0.09375 -1.85938,0.230469 -2.78125,0.414063 -0.91797,0.183594 -1.82813,0.410156 -2.72266,0.683594 -0.898438,0.269531 -1.78125,0.585937 -2.648438,0.945312 -0.863281,0.359375 -1.710937,0.761719 -2.539062,1.203125 -0.828125,0.441406 -1.628906,0.921875 -2.410156,1.441406 -0.78125,0.523438 -1.53125,1.082032 -2.257813,1.675782 -0.722656,0.59375 -1.417969,1.222656 -2.082031,1.886718 -0.664062,0.664063 -1.292969,1.359376 -1.886719,2.082032 -0.59375,0.726562 -1.152343,1.476562 -1.671875,2.257812 -0.523437,0.78125 -1.003906,1.582032 -1.445312,2.410156 -0.441406,0.828126 -0.84375,1.671876 -1.203125,2.539063 -0.359375,0.867187 -0.671875,1.75 -0.945313,2.648437 -0.273437,0.894532 -0.5,1.804688 -0.683594,2.722657 -0.183593,0.921875 -0.320312,1.847656 -0.410156,2.78125 -0.09375,0.933593 -0.140625,1.867187 -0.140625,2.804687 0,0.9375 0.04687,1.875 0.140625,2.808594 0.08984,0.93359 0.226563,1.85938 0.410156,2.77734 0.183594,0.92188 0.410157,1.83204 0.683594,2.72657 0.273438,0.89843 0.585938,1.78125 0.945313,2.64843 0.359375,0.86329 0.761719,1.71094 1.203125,2.53907 0.441406,0.82812 0.921875,1.6289 1.445312,2.41015 0.519532,0.78125 1.078125,1.53125 1.671875,2.25782 0.59375,0.72265 1.222657,1.41796 1.886719,2.08203 0.664062,0.66015 1.359375,1.29297 2.082031,1.88672 0.726563,0.59375 1.476563,1.15234 2.257813,1.67187 0.78125,0.52344 1.582031,1.00391 2.410156,1.44531 0.828125,0.44141 1.675781,0.84375 2.539062,1.20313 0.867188,0.35937 1.75,0.67187 2.648438,0.94531 0.89453,0.27344 1.80469,0.5 2.72266,0.68359 0.92187,0.1836 1.84765,0.32032 2.78125,0.41016 0.93359,0.0937 1.86718,0.14063 2.80859,0.14063 0.9375,0 1.87109,-0.0469 2.80469,-0.14063 0.93359,-0.0898 1.85937,-0.22656 2.78125,-0.41016 0.91797,-0.18359 1.82812,-0.41015 2.72265,-0.68359 0.89844,-0.27344 1.78125,-0.58594 2.64844,-0.94531 0.86328,-0.35938 1.71094,-0.76172 2.53906,-1.20313 0.82813,-0.4414 1.62891,-0.92187 2.41016,-1.44531 0.78125,-0.51953 1.53125,-1.07812 2.25781,-1.67187 0.72266,-0.59375 1.41797,-1.22657 2.08203,-1.88672 0.66407,-0.66407 1.29297,-1.35938 1.88672,-2.08203 0.59375,-0.72657 1.15235,-1.47657 1.67188,-2.25782 0.52343,-0.78125 1.0039,-1.58203 1.44531,-2.41015 0.44141,-0.82813 0.84375,-1.67578 1.20312,-2.53907 0.35938,-0.86718 0.67188,-1.75 0.94532,-2.64843 0.27343,-0.89453 0.5,-1.80469 0.68359,-2.72657 0.18359,-0.91796 0.32031,-1.84375 0.41406,-2.77734 0.0898,-0.933594 0.13672,-1.871094 0.13672,-2.808594 0,-0.9375 -0.0469,-1.871094 -0.13672,-2.804687 -0.0937,-0.933594 -0.23047,-1.859375 -0.41406,-2.78125 -0.18359,-0.917969 -0.41016,-1.828125 -0.68359,-2.722657 -0.27344,-0.898437 -0.58594,-1.78125 -0.94532,-2.648437 -0.35937,-0.867187 -0.76171,-1.710937 -1.20312,-2.539063 -0.44141,-0.828124 -0.92188,-1.628906 -1.44531,-2.410156 -0.51953,-0.78125 -1.07813,-1.53125 -1.67188,-2.257812 -0.59375,-0.722656 -1.22265,-1.417969 -1.88672,-2.082032 -0.66406,-0.664062 -1.35937,-1.292968 -2.08203,-1.886718 -0.72656,-0.59375 -1.47656,-1.152344 -2.25781,-1.675782 -0.78125,-0.519531 -1.58203,-1 -2.41016,-1.441406 -0.82812,-0.441406 -1.67578,-0.84375 -2.53906,-1.203125 -0.86719,-0.359375 -1.75,-0.675781 -2.64844,-0.945312 -0.89453,-0.273438 -1.80468,-0.5 -2.72265,-0.683594 -0.92188,-0.183594 -1.84766,-0.320313 -2.78125,-0.414063 -0.9336,-0.08984 -1.86719,-0.136718 -2.80469,-0.136718 z m 0,0"
       fill-opacity="1"
       fill-rule="nonzero"
       id="path89" />
  </g>
  <g
     clip-path="url(#4a2d36d453)"
     id="g97"
     transform="translate(-1.5,-24)">
    <path
       fill="#fca311"
       d="m 37.949219,98.136719 c 0.757812,0 1.515625,0.03906 2.269531,0.113281 0.753906,0.07422 1.503906,0.183594 2.25,0.332031 0.742188,0.148438 1.480469,0.332031 2.207031,0.554688 0.722657,0.21875 1.4375,0.472656 2.140625,0.765625 0.699219,0.289066 1.382813,0.613286 2.054688,0.972656 0.667968,0.35547 1.320312,0.74609 1.949218,1.16797 0.632813,0.42187 1.238282,0.87109 1.828126,1.35547 0.585937,0.48047 1.148437,0.98828 1.683593,1.52734 0.535157,0.53516 1.046875,1.09766 1.527344,1.6836 0.480469,0.58593 0.933594,1.19531 1.355469,1.82421 0.421875,0.63282 0.808594,1.28125 1.167968,1.95313 0.359376,0.66797 0.679688,1.35156 0.972657,2.05469 0.289062,0.69922 0.546875,1.41406 0.765625,2.14062 0.21875,0.72656 0.402344,1.46094 0.550781,2.20703 0.148437,0.74219 0.261719,1.49219 0.335937,2.2461 0.07422,0.75781 0.109376,1.51562 0.109376,2.27343 0,0.75782 -0.03516,1.51563 -0.109376,2.26954 -0.07422,0.75781 -0.1875,1.50781 -0.335937,2.25 -0.148437,0.74609 -0.332031,1.48046 -0.550781,2.20703 -0.21875,0.72656 -0.476563,1.4375 -0.765625,2.14062 -0.292969,0.69922 -0.613281,1.38672 -0.972657,2.05469 -0.359374,0.66797 -0.746093,1.32031 -1.167968,1.94922 -0.421875,0.63281 -0.875,1.24218 -1.355469,1.82812 -0.480469,0.58594 -0.992187,1.14844 -1.527344,1.6836 -0.535156,0.53906 -1.097656,1.04687 -1.683593,1.52734 -0.589844,0.48047 -1.195313,0.93359 -1.828126,1.35547 -0.628906,0.42187 -1.28125,0.8125 -1.949218,1.16797 -0.671875,0.35937 -1.355469,0.68359 -2.054688,0.97265 -0.703125,0.28907 -1.417968,0.54688 -2.140625,0.76563 -0.726562,0.22265 -1.464843,0.40625 -2.207031,0.55469 -0.746094,0.14843 -1.496094,0.25781 -2.25,0.33203 -0.753906,0.0742 -1.511719,0.11328 -2.269531,0.11328 -0.761719,0 -1.515625,-0.0391 -2.273438,-0.11328 -0.753906,-0.0742 -1.503906,-0.1836 -2.25,-0.33203 -0.742187,-0.14844 -1.476562,-0.33204 -2.203125,-0.55469 -0.726562,-0.21875 -1.441406,-0.47656 -2.140625,-0.76563 -0.703125,-0.28906 -1.386719,-0.61328 -2.058593,-0.97265 -0.667969,-0.35547 -1.316407,-0.7461 -1.949219,-1.16797 -0.628907,-0.42188 -1.238281,-0.875 -1.824219,-1.35547 -0.589844,-0.48047 -1.148438,-0.98828 -1.6875,-1.52734 -0.535156,-0.53516 -1.042969,-1.09766 -1.527344,-1.6836 -0.480468,-0.58594 -0.929687,-1.19531 -1.351562,-1.82812 -0.421875,-0.62891 -0.8125,-1.28125 -1.171875,-1.94922 -0.355469,-0.66797 -0.679688,-1.35547 -0.972657,-2.05469 -0.289062,-0.70312 -0.542968,-1.41406 -0.765624,-2.14062 -0.21875,-0.72657 -0.402344,-1.46094 -0.550782,-2.20703 -0.148437,-0.74219 -0.257812,-1.49219 -0.335937,-2.25 -0.07422,-0.75391 -0.109375,-1.51172 -0.109375,-2.26954 0,-0.75781 0.03516,-1.51562 0.109375,-2.27343 0.07813,-0.75391 0.1875,-1.50391 0.335937,-2.2461 0.148438,-0.74609 0.332032,-1.48047 0.550782,-2.20703 0.222656,-0.72656 0.476562,-1.4414 0.765624,-2.14062 0.292969,-0.70313 0.617188,-1.38672 0.972657,-2.05469 0.359375,-0.67188 0.75,-1.32031 1.171875,-1.95313 0.421875,-0.6289 0.871094,-1.23828 1.351562,-1.82421 0.484375,-0.58594 0.992188,-1.14844 1.527344,-1.6836 0.539062,-0.53906 1.097656,-1.04687 1.6875,-1.52734 0.585938,-0.48438 1.195312,-0.9336 1.824219,-1.35547 0.632812,-0.42188 1.28125,-0.8125 1.949219,-1.16797 0.671874,-0.35937 1.355468,-0.68359 2.058593,-0.972656 0.699219,-0.292969 1.414063,-0.546875 2.140625,-0.765625 0.726563,-0.222657 1.460938,-0.40625 2.203125,-0.554688 0.746094,-0.148437 1.496094,-0.257812 2.25,-0.332031 0.757813,-0.07422 1.511719,-0.113281 2.273438,-0.113281 v 9.269531 c -0.914063,0 -1.820313,0.0898 -2.714844,0.26563 -0.894531,0.17968 -1.761719,0.4414 -2.605469,0.79296 -0.84375,0.34766 -1.644531,0.77735 -2.40625,1.28516 -0.757812,0.50391 -1.460937,1.08203 -2.105468,1.72656 -0.644532,0.64453 -1.222657,1.34766 -1.730469,2.10938 -0.503907,0.75781 -0.933594,1.55859 -1.28125,2.40234 -0.351563,0.84375 -0.613281,1.71094 -0.792969,2.60938 -0.179688,0.89453 -0.265625,1.79687 -0.265625,2.71093 0,0.91407 0.08594,1.81641 0.265625,2.71094 0.179688,0.89453 0.441406,1.76563 0.792969,2.60938 0.347656,0.84375 0.777343,1.64453 1.28125,2.40234 0.507812,0.75781 1.085937,1.46094 1.730469,2.10547 0.644531,0.64844 1.347656,1.22265 2.105468,1.73047 0.761719,0.50781 1.5625,0.9375 2.40625,1.28515 0.84375,0.34766 1.710938,0.61328 2.605469,0.79297 0.894531,0.17578 1.800781,0.26563 2.714844,0.26563 0.910156,0 1.816406,-0.0898 2.710937,-0.26563 0.894532,-0.17969 1.765625,-0.44531 2.609375,-0.79297 0.84375,-0.34765 1.644531,-0.77734 2.402344,-1.28515 0.757813,-0.50782 1.460937,-1.08203 2.105469,-1.73047 0.644531,-0.64453 1.222656,-1.34766 1.730468,-2.10547 0.507813,-0.75781 0.933594,-1.55859 1.285157,-2.40234 0.347656,-0.84375 0.613281,-1.71485 0.789062,-2.60938 0.179688,-0.89453 0.269531,-1.79687 0.269531,-2.71094 0,-0.91406 -0.08984,-1.8164 -0.269531,-2.71093 -0.175781,-0.89844 -0.441406,-1.76563 -0.789062,-2.60938 -0.351563,-0.84375 -0.777344,-1.64453 -1.285157,-2.40234 -0.507812,-0.76172 -1.085937,-1.46485 -1.730468,-2.10938 -0.644532,-0.64453 -1.347656,-1.22265 -2.105469,-1.72656 -0.757813,-0.50781 -1.558594,-0.9375 -2.402344,-1.28516 -0.84375,-0.35156 -1.714843,-0.61328 -2.609375,-0.79296 -0.894531,-0.17579 -1.800781,-0.26563 -2.710937,-0.26563 z m 0,0"
       fill-opacity="1"
       fill-rule="nonzero"
       id="path93" />
    <path
       fill="#fca311"
       d="m 37.949219,98.136719 c 0.757812,0 1.515625,0.03906 2.269531,0.113281 0.753906,0.07422 1.503906,0.183594 2.25,0.332031 0.742188,0.148438 1.480469,0.332031 2.207031,0.554688 0.722657,0.21875 1.4375,0.472656 2.140625,0.765625 0.699219,0.289066 1.382813,0.613286 2.054688,0.972656 0.667968,0.35547 1.320312,0.74609 1.949218,1.16797 0.632813,0.42187 1.238282,0.87109 1.828126,1.35547 0.585937,0.48047 1.148437,0.98828 1.683593,1.52734 0.535157,0.53516 1.046875,1.09766 1.527344,1.6836 0.480469,0.58593 0.933594,1.19531 1.355469,1.82421 0.421875,0.63282 0.808594,1.28125 1.167968,1.95313 0.359376,0.66797 0.679688,1.35156 0.972657,2.05469 0.289062,0.69922 0.546875,1.41406 0.765625,2.14062 0.21875,0.72656 0.402344,1.46094 0.550781,2.20703 0.148437,0.74219 0.261719,1.49219 0.335937,2.2461 0.07422,0.75781 0.109376,1.51562 0.109376,2.27343 0,0.75782 -0.03516,1.51563 -0.109376,2.26954 -0.07422,0.75781 -0.1875,1.50781 -0.335937,2.25 -0.148437,0.74609 -0.332031,1.48046 -0.550781,2.20703 -0.21875,0.72656 -0.476563,1.4375 -0.765625,2.14062 -0.292969,0.69922 -0.613281,1.38672 -0.972657,2.05469 -0.359374,0.66797 -0.746093,1.32031 -1.167968,1.94922 -0.421875,0.63281 -0.875,1.24218 -1.355469,1.82812 -0.480469,0.58594 -0.992187,1.14844 -1.527344,1.6836 -0.535156,0.53906 -1.097656,1.04687 -1.683593,1.52734 -0.589844,0.48047 -1.195313,0.93359 -1.828126,1.35547 -0.628906,0.42187 -1.28125,0.8125 -1.949218,1.16797 -0.671875,0.35937 -1.355469,0.68359 -2.054688,0.97265 -0.703125,0.28907 -1.417968,0.54688 -2.140625,0.76563 -0.726562,0.22265 -1.464843,0.40625 -2.207031,0.55469 -0.746094,0.14843 -1.496094,0.25781 -2.25,0.33203 -0.753906,0.0742 -1.511719,0.11328 -2.269531,0.11328 -0.761719,0 -1.515625,-0.0391 -2.273438,-0.11328 -0.753906,-0.0742 -1.503906,-0.1836 -2.25,-0.33203 -0.742187,-0.14844 -1.476562,-0.33204 -2.203125,-0.55469 -0.726562,-0.21875 -1.441406,-0.47656 -2.140625,-0.76563 -0.703125,-0.28906 -1.386719,-0.61328 -2.058593,-0.97265 -0.667969,-0.35547 -1.316407,-0.7461 -1.949219,-1.16797 -0.628907,-0.42188 -1.238281,-0.875 -1.824219,-1.35547 -0.589844,-0.48047 -1.148438,-0.98828 -1.6875,-1.52734 -0.535156,-0.53516 -1.042969,-1.09766 -1.527344,-1.6836 -0.480468,-0.58594 -0.929687,-1.19531 -1.351562,-1.82812 -0.421875,-0.62891 -0.8125,-1.28125 -1.171875,-1.94922 -0.355469,-0.66797 -0.679688,-1.35547 -0.972657,-2.05469 -0.289062,-0.70312 -0.542968,-1.41406 -0.765624,-2.14062 -0.21875,-0.72657 -0.402344,-1.46094 -0.550782,-2.20703 -0.148437,-0.74219 -0.257812,-1.49219 -0.335937,-2.25 -0.07422,-0.75391 -0.109375,-1.51172 -0.109375,-2.26954 0,-0.75781 0.03516,-1.51562 0.109375,-2.27343 0.07813,-0.75391 0.1875,-1.50391 0.335937,-2.2461 0.148438,-0.74609 0.332032,-1.48047 0.550782,-2.20703 0.222656,-0.72656 0.476562,-1.4414 0.765624,-2.14062 0.292969,-0.70313 0.617188,-1.38672 0.972657,-2.05469 0.359375,-0.67188 0.75,-1.32031 1.171875,-1.95313 0.421875,-0.6289 0.871094,-1.23828 1.351562,-1.82421 0.484375,-0.58594 0.992188,-1.14844 1.527344,-1.6836 0.539062,-0.53906 1.097656,-1.04687 1.6875,-1.52734 0.585938,-0.48438 1.195312,-0.9336 1.824219,-1.35547 0.632812,-0.42188 1.28125,-0.8125 1.949219,-1.16797 0.671874,-0.35937 1.355468,-0.68359 2.058593,-0.972656 0.699219,-0.292969 1.414063,-0.546875 2.140625,-0.765625 0.726563,-0.222657 1.460938,-0.40625 2.203125,-0.554688 0.746094,-0.148437 1.496094,-0.257812 2.25,-0.332031 0.757813,-0.07422 1.511719,-0.113281 2.273438,-0.113281 v 9.269531 c -0.914063,0 -1.820313,0.0898 -2.714844,0.26563 -0.894531,0.17968 -1.761719,0.4414 -2.605469,0.79296 -0.84375,0.34766 -1.644531,0.77735 -2.40625,1.28516 -0.757812,0.50391 -1.460937,1.08203 -2.105468,1.72656 -0.644532,0.64453 -1.222657,1.34766 -1.730469,2.10938 -0.503907,0.75781 -0.933594,1.55859 -1.28125,2.40234 -0.351563,0.84375 -0.613281,1.71094 -0.792969,2.60938 -0.179688,0.89453 -0.265625,1.79687 -0.265625,2.71093 0,0.91407 0.08594,1.81641 0.265625,2.71094 0.179688,0.89453 0.441406,1.76563 0.792969,2.60938 0.347656,0.84375 0.777343,1.64453 1.28125,2.40234 0.507812,0.75781 1.085937,1.46094 1.730469,2.10547 0.644531,0.64844 1.347656,1.22265 2.105468,1.73047 0.761719,0.50781 1.5625,0.9375 2.40625,1.28515 0.84375,0.34766 1.710938,0.61328 2.605469,0.79297 0.894531,0.17578 1.800781,0.26563 2.714844,0.26563 0.910156,0 1.816406,-0.0898 2.710937,-0.26563 0.894532,-0.17969 1.765625,-0.44531 2.609375,-0.79297 0.84375,-0.34765 1.644531,-0.77734 2.402344,-1.28515 0.757813,-0.50782 1.460937,-1.08203 2.105469,-1.73047 0.644531,-0.64453 1.222656,-1.34766 1.730468,-2.10547 0.507813,-0.75781 0.933594,-1.55859 1.285157,-2.40234 0.347656,-0.84375 0.613281,-1.71485 0.789062,-2.60938 0.179688,-0.89453 0.269531,-1.79687 0.269531,-2.71094 0,-0.91406 -0.08984,-1.8164 -0.269531,-2.71093 -0.175781,-0.89844 -0.441406,-1.76563 -0.789062,-2.60938 -0.351563,-0.84375 -0.777344,-1.64453 -1.285157,-2.40234 -0.507812,-0.76172 -1.085937,-1.46485 -1.730468,-2.10938 -0.644532,-0.64453 -1.347656,-1.22265 -2.105469,-1.72656 -0.757813,-0.50781 -1.558594,-0.9375 -2.402344,-1.28516 -0.84375,-0.35156 -1.714843,-0.61328 -2.609375,-0.79296 -0.894531,-0.17579 -1.800781,-0.26563 -2.710937,-0.26563 z m 0,0"
       fill-opacity="1"
       fill-rule="nonzero"
       id="path95" />
  </g>
  <g
     clip-path="url(#6d66164149)"
     id="g105"
     transform="translate(-1.5,-24)">
    <g
       clip-path="url(#e4dad976c2)"
       id="g103">
      <path
         fill="#fca311"
         d="M 92.21875,44.597656 32.417969,95.09375 c -0.429688,0.363281 -0.890625,0.683594 -1.386719,0.953125 -0.492188,0.273437 -1.007812,0.496094 -1.546875,0.667969 -0.535156,0.171875 -1.085937,0.289062 -1.644531,0.351562 -0.5625,0.0625 -1.121094,0.07031 -1.683594,0.02344 -0.5625,-0.04687 -1.113281,-0.148438 -1.65625,-0.304688 -0.542969,-0.15625 -1.0625,-0.363281 -1.566406,-0.621094 -0.5,-0.261718 -0.972656,-0.566406 -1.414063,-0.917968 -0.4375,-0.351563 -0.839843,-0.742188 -1.207031,-1.171875 -0.363281,-0.433594 -0.679688,-0.894531 -0.953125,-1.386719 -0.273437,-0.496094 -0.496094,-1.011719 -0.667969,-1.546875 -0.167968,-0.539063 -0.289062,-1.089844 -0.351562,-1.648437 -0.0625,-0.558594 -0.07031,-1.121094 -0.02344,-1.683594 0.04687,-0.5625 0.148438,-1.113282 0.304688,-1.65625 0.15625,-0.542969 0.367187,-1.0625 0.625,-1.566406 0.257812,-0.5 0.5625,-0.96875 0.914062,-1.410157 0.351563,-0.441406 0.742188,-0.84375 1.175782,-1.207031 L 81.132812,31.472656 c 0.433594,-0.363281 0.894532,-0.683594 1.386719,-0.957031 0.496094,-0.269531 1.011719,-0.492187 1.546875,-0.664063 0.539063,-0.171874 1.085938,-0.289062 1.648438,-0.351562 0.558594,-0.0625 1.121094,-0.07031 1.683594,-0.02344 0.5625,0.04688 1.113281,0.148438 1.65625,0.304688 0.542968,0.15625 1.0625,0.363281 1.5625,0.621094 0.503906,0.261718 0.972656,0.566406 1.414062,0.917968 0.441406,0.351563 0.84375,0.742188 1.207031,1.171876 0.363281,0.433593 0.683594,0.894531 0.957031,1.386718 0.273438,0.496094 0.492188,1.011719 0.664063,1.546875 0.171875,0.539063 0.289063,1.085938 0.351563,1.648438 0.0625,0.558593 0.07031,1.121093 0.02344,1.683593 -0.04687,0.5625 -0.148437,1.113282 -0.304687,1.65625 -0.15625,0.542969 -0.363282,1.0625 -0.621094,1.5625 -0.257813,0.503907 -0.566406,0.972657 -0.917969,1.414063 -0.351563,0.441406 -0.742187,0.84375 -1.171875,1.207031 z m 0,0"
         fill-opacity="1"
         fill-rule="nonzero"
         id="path99" />
      <path
         fill="#fca311"
         d="M 92.21875,44.597656 32.417969,95.09375 c -0.429688,0.363281 -0.890625,0.683594 -1.386719,0.953125 -0.492188,0.273437 -1.007812,0.496094 -1.546875,0.667969 -0.535156,0.171875 -1.085937,0.289062 -1.644531,0.351562 -0.5625,0.0625 -1.121094,0.07031 -1.683594,0.02344 -0.5625,-0.04687 -1.113281,-0.148438 -1.65625,-0.304688 -0.542969,-0.15625 -1.0625,-0.363281 -1.566406,-0.621094 -0.5,-0.261718 -0.972656,-0.566406 -1.414063,-0.917968 -0.4375,-0.351563 -0.839843,-0.742188 -1.207031,-1.171875 -0.363281,-0.433594 -0.679688,-0.894531 -0.953125,-1.386719 -0.273437,-0.496094 -0.496094,-1.011719 -0.667969,-1.546875 -0.167968,-0.539063 -0.289062,-1.089844 -0.351562,-1.648437 -0.0625,-0.558594 -0.07031,-1.121094 -0.02344,-1.683594 0.04687,-0.5625 0.148438,-1.113282 0.304688,-1.65625 0.15625,-0.542969 0.367187,-1.0625 0.625,-1.566406 0.257812,-0.5 0.5625,-0.96875 0.914062,-1.410157 0.351563,-0.441406 0.742188,-0.84375 1.175782,-1.207031 L 81.132812,31.472656 c 0.433594,-0.363281 0.894532,-0.683594 1.386719,-0.957031 0.496094,-0.269531 1.011719,-0.492187 1.546875,-0.664063 0.539063,-0.171874 1.085938,-0.289062 1.648438,-0.351562 0.558594,-0.0625 1.121094,-0.07031 1.683594,-0.02344 0.5625,0.04688 1.113281,0.148438 1.65625,0.304688 0.542968,0.15625 1.0625,0.363281 1.5625,0.621094 0.503906,0.261718 0.972656,0.566406 1.414062,0.917968 0.441406,0.351563 0.84375,0.742188 1.207031,1.171876 0.363281,0.433593 0.683594,0.894531 0.957031,1.386718 0.273438,0.496094 0.492188,1.011719 0.664063,1.546875 0.171875,0.539063 0.289063,1.085938 0.351563,1.648438 0.0625,0.558593 0.07031,1.121093 0.02344,1.683593 -0.04687,0.5625 -0.148437,1.113282 -0.304687,1.65625 -0.15625,0.542969 -0.363282,1.0625 -0.621094,1.5625 -0.257813,0.503907 -0.566406,0.972657 -0.917969,1.414063 -0.351563,0.441406 -0.742187,0.84375 -1.171875,1.207031 z m 0,0"
         fill-opacity="1"
         fill-rule="nonzero"
         id="path101" />
    </g>
  </g>
</svg>
